<svg width="38" height="38" fill="none" xmlns="http://www.w3.org/2000/svg"><path d="M26.923 31.752c-1.694 1.642-3.543 1.382-5.323.605-1.884-.795-3.612-.83-5.6 0-2.488 1.071-3.802.76-5.288-.605-8.433-8.693-7.189-21.93 2.385-22.415 2.333.121 3.958 1.28 5.323 1.383 2.04-.415 3.992-1.607 6.17-1.452 2.61.208 4.58 1.244 5.875 3.11-5.392 3.233-4.113 10.335.83 12.323-.985 2.592-2.264 5.167-4.39 7.068l.018-.017zM18.247 9.234c-.26-3.854 2.869-7.034 6.463-7.345.502 4.459-4.043 7.777-6.463 7.345z" fill="#fff"/></svg>