<svg width="670" height="125" fill="none" xmlns="http://www.w3.org/2000/svg"><g filter="url(#filter0_d_1263_67826)"><path d="M128.5 100.499l.07-.998-.07.998zm224.5-45.5l.357.934.038-.014.036-.018L353 55zm308.949 17.816a1 1 0 00-.633-1.265l-8.538-2.846a1 1 0 00-.632 1.898l7.589 2.53-2.53 7.589a1 1 0 001.898.632l2.846-8.538zM8.5 74.5c-.3.954-.3.954-.298.955h.002l.01.004.04.012.157.049.616.19c.542.168 1.342.413 2.378.727a763.1 763.1 0 008.84 2.615 930.638 930.638 0 0030.072 8.16c24.031 6.085 54.103 12.603 78.113 14.286l.14-1.996c-23.823-1.669-53.751-8.15-77.762-14.228a928.521 928.521 0 01-30.006-8.143 761.877 761.877 0 01-8.818-2.608 476.307 476.307 0 01-3.133-.961l-.039-.012a.435.435 0 01-.01-.003H8.8l-.3.953zm119.93 26.998c44.795 3.138 101.057-8.277 146.045-20.438 22.509-6.085 42.226-12.365 56.316-17.124a811.97 811.97 0 0016.563-5.784 515.806 515.806 0 005.609-2.068l.294-.112a18.637 18.637 0 01.094-.035l.005-.002c.001 0 .001-.001-.356-.935a47.294 47.294 0 00-.359-.933l-.004.001-.018.007-.073.028-.29.11-1.146.43c-1.01.376-2.504.928-4.437 1.628a810.259 810.259 0 01-16.522 5.77c-14.061 4.75-33.737 11.017-56.198 17.088-44.954 12.152-100.942 23.487-145.383 20.373l-.14 1.996zM353 54.999l.432.902c.002 0 .003-.002.005-.003l.02-.009.078-.037.31-.147 1.219-.572c1.07-.5 2.644-1.23 4.658-2.146a760.65 760.65 0 0116.85-7.412c14.071-5.993 33.121-13.638 53.055-20.252 19.945-6.617 40.725-12.184 58.268-14.048 8.772-.932 16.687-.933 23.261.3 6.577 1.234 11.725 3.684 15.087 7.578l1.514-1.307c-3.763-4.357-9.397-6.954-16.232-8.236-6.837-1.282-14.965-1.267-23.842-.324-17.754 1.886-38.692 7.506-58.685 14.139-20.004 6.636-39.109 14.304-53.21 20.31a764.146 764.146 0 00-16.895 7.432 521.382 521.382 0 00-5.902 2.73l-.315.149-.08.038-.02.01-.005.002c-.001 0-.002 0 .429.903zm173.243-35.846c6.859 7.94 7.473 16.32 4.985 24.847-2.512 8.608-8.168 17.294-13.808 25.692-5.583 8.311-11.2 16.403-13.317 23.62-1.069 3.642-1.28 7.164-.081 10.434 1.202 3.278 3.769 6.158 7.973 8.616l1.01-1.726c-3.921-2.292-6.104-4.85-7.105-7.579-1.004-2.738-.872-5.794.122-9.183 2.008-6.846 7.391-14.629 13.058-23.067 5.61-8.352 11.454-17.292 14.067-26.247 2.637-9.034 2.001-18.156-5.39-26.715l-1.514 1.308zm-14.248 93.209c4.261 2.491 9.812 3.68 16.18 3.916 6.378.236 13.651-.482 21.415-1.873 15.528-2.78 33.137-8.271 49.692-14.342 16.561-6.074 32.1-12.74 43.497-17.887a679.203 679.203 0 0013.605-6.32 451.658 451.658 0 004.977-2.42l.064-.032.016-.008.005-.002L661 72.5l-.448-.894-.004.002-.016.008a3.467 3.467 0 01-.062.03l-.247.124c-.22.108-.546.27-.974.479-.855.419-2.114 1.031-3.729 1.804a676.967 676.967 0 01-13.564 6.301c-11.369 5.135-26.862 11.78-43.363 17.832-16.508 6.054-33.993 11.501-49.355 14.252-7.681 1.375-14.803 2.071-20.989 1.842-6.197-.229-11.38-1.384-15.244-3.643l-1.01 1.726z" fill="#56C676"/></g><defs><filter id="filter0_d_1263_67826" x=".201" y=".609" width="669.799" height="123.711" filterUnits="userSpaceOnUse" color-interpolation-filters="sRGB"><feFlood flood-opacity="0" result="BackgroundImageFix"/><feColorMatrix in="SourceAlpha" values="0 0 0 0 0 0 0 0 0 0 0 0 0 0 0 0 0 0 127 0" result="hardAlpha"/><feOffset/><feGaussianBlur stdDeviation="4"/><feComposite in2="hardAlpha" operator="out"/><feColorMatrix values="0 0 0 0 0.337255 0 0 0 0 0.776471 0 0 0 0 0.462745 0 0 0 1 0"/><feBlend in2="BackgroundImageFix" result="effect1_dropShadow_1263_67826"/><feBlend in="SourceGraphic" in2="effect1_dropShadow_1263_67826" result="shape"/></filter></defs></svg>