<svg width="586" height="123" fill="none" xmlns="http://www.w3.org/2000/svg"><g filter="url(#filter0_d_1263_67866)"><path d="M113.46 99.277l.079-.997-.079.997zm195.427-45.193l.4.916.04-.017.038-.021-.478-.878zm269.078 17.645a1 1 0 00-.701-1.228l-8.681-2.374a1 1 0 00-.528 1.93l7.717 2.11-2.111 7.716a1 1 0 001.93.528l2.374-8.681zM9 73.453l-.336.942h.002c.002.002.005.003.009.004l.035.013.137.048.537.19c.472.166 1.169.41 2.07.722 1.803.623 4.424 1.516 7.699 2.598a732.328 732.328 0 0026.185 8.108c20.92 6.043 47.117 12.524 68.042 14.197l.159-1.994c-20.713-1.656-46.747-8.087-67.646-14.124A730.344 730.344 0 0119.78 76.07a602.862 602.862 0 01-7.673-2.59 375.005 375.005 0 01-2.767-.968l-.002-.001-.338.941zm104.38 26.822c39.042 3.121 88.054-8.23 127.218-20.31 19.6-6.045 36.768-12.284 49.037-17.012a650.393 650.393 0 0014.422-5.747 422.175 422.175 0 004.885-2.056l.257-.11.065-.029a.368.368 0 01.017-.007l.004-.002c.001 0 .002 0-.398-.917-.401-.917-.401-.917-.402-.916l-.003.001a.33.33 0 00-.016.007l-.063.028-.252.109c-.224.096-.558.24-.997.426-.879.374-2.178.922-3.861 1.617a646.596 646.596 0 01-14.378 5.73c-12.236 4.715-29.36 10.939-48.907 16.968-39.129 12.069-87.83 23.315-126.469 20.226l-.159 1.994zm195.507-46.19c.478.878.479.878.479.877l.004-.002a.291.291 0 00.017-.01l.068-.036.27-.146a439.221 439.221 0 015.113-2.698 623.935 623.935 0 0114.664-7.36c12.245-5.952 28.824-13.543 46.169-20.109 17.357-6.57 35.426-12.093 50.67-13.94 7.621-.925 14.483-.923 20.172.295 5.681 1.216 10.128 3.627 13.043 7.478l1.595-1.207c-3.288-4.343-8.225-6.944-14.22-8.227-5.986-1.281-13.09-1.264-20.831-.325-15.483 1.877-33.729 7.466-51.138 14.056-17.42 6.595-34.057 14.213-46.335 20.18a624.945 624.945 0 00-14.71 7.384 415.919 415.919 0 00-5.141 2.713l-.274.148-.07.038-.018.01-.004.002c-.001 0-.002 0 .477.879zm150.669-35.65c5.974 7.892 6.52 16.25 4.344 24.755-2.19 8.563-7.118 17.197-12.025 25.535-4.863 8.26-9.748 16.29-11.587 23.444-.927 3.605-1.107 7.076-.072 10.298 1.041 3.237 3.272 6.109 6.96 8.569l1.11-1.664c-3.385-2.258-5.288-4.787-6.166-7.517-.882-2.746-.763-5.809.105-9.188 1.752-6.813 6.443-14.551 11.373-22.928 4.886-8.3 9.968-17.172 12.24-26.053 2.286-8.938 1.743-17.963-4.687-26.459l-1.595 1.207zm-12.38 92.601c3.744 2.497 8.619 3.686 14.19 3.921 5.578.235 11.93-.481 18.699-1.865 13.538-2.765 28.881-8.225 43.296-14.257 14.422-6.035 27.954-12.66 37.877-17.773a558.57 558.57 0 0011.847-6.28 386.103 386.103 0 004.391-2.436l.014-.008.004-.002c.001 0 .002 0-.494-.87l-.496-.867-.004.002-.013.007-.054.03-.215.123-.847.475a376.47 376.47 0 01-3.245 1.792 558.322 558.322 0 01-11.804 6.256c-9.894 5.099-23.375 11.698-37.733 17.706-14.366 6.011-29.572 11.415-42.925 14.143-6.676 1.364-12.854 2.052-18.214 1.826-5.366-.227-9.836-1.367-13.164-3.587l-1.11 1.664z" fill="#fff"/></g><defs><filter id="filter0_d_1263_67866" x=".664" y="0" width="585.337" height="123" filterUnits="userSpaceOnUse" color-interpolation-filters="sRGB"><feFlood flood-opacity="0" result="BackgroundImageFix"/><feColorMatrix in="SourceAlpha" values="0 0 0 0 0 0 0 0 0 0 0 0 0 0 0 0 0 0 127 0" result="hardAlpha"/><feOffset/><feGaussianBlur stdDeviation="4"/><feComposite in2="hardAlpha" operator="out"/><feColorMatrix values="0 0 0 0 1 0 0 0 0 1 0 0 0 0 1 0 0 0 1 0"/><feBlend in2="BackgroundImageFix" result="effect1_dropShadow_1263_67866"/><feBlend in="SourceGraphic" in2="effect1_dropShadow_1263_67866" result="shape"/></filter></defs></svg>