<svg width="197" height="240" fill="none" xmlns="http://www.w3.org/2000/svg"><rect x="17.174" y="231.625" width="168.581" height="8.372" rx="4.186" fill="#fff"/><rect x="17.174" y="129.48" width="19.833" height="93.633" rx="9.917" fill="#56C676"/><rect x="46.922" y="86.922" width="19.833" height="136.194" rx="9.917" fill="#56C676"/><rect x="76.668" y="129.48" width="19.833" height="93.633" rx="9.917" fill="#56C676"/><rect x="106.422" y="103.949" width="19.833" height="119.17" rx="9.917" fill="#56C676"/><rect x="136.166" y="78.41" width="19.833" height="144.706" rx="9.917" fill="#56C676"/><rect x="165.916" y="61.383" width="19.833" height="161.73" rx="9.917" fill="#56C676"/><path d="M6 93.555l49.547-28.606c4.239-2.447 10.207-.921 12.6 3.222l9.405 16.29c2.392 4.144 8.36 5.67 12.599 3.223l101.282-58.475" stroke="#F0B020" stroke-width="10" stroke-linecap="round"/><path d="M130.019 40.346c0 2.634-.838 4.774-2.515 6.42-1.676 1.617-3.862 2.59-6.556 2.92v3.952h-3.009V49.73c-2.514-.18-4.67-.883-6.466-2.11-1.796-1.228-3.083-2.89-3.862-4.985l5.344-3.099c.958 2.395 2.619 3.757 4.984 4.087v-7.77h-.045l-.089-.044a40.281 40.281 0 01-2.56-1.033c-.659-.3-1.437-.733-2.335-1.302-.868-.569-1.557-1.153-2.066-1.751-.479-.629-.913-1.422-1.302-2.38-.359-.958-.539-2.006-.539-3.144 0-2.634.853-4.745 2.56-6.331 1.736-1.587 3.862-2.5 6.376-2.74v-3.906h3.009v3.996c4.071.48 6.945 2.59 8.622 6.332l-5.209 3.053c-.719-1.796-1.856-2.889-3.413-3.278v7.5c2.784 1.107 4.655 1.99 5.613 2.649 2.305 1.646 3.458 3.937 3.458 6.87zm-14.864-14.1c0 .658.21 1.242.629 1.75.419.48 1.138.974 2.155 1.482v-6.286c-.898.18-1.586.538-2.065 1.077-.479.54-.719 1.198-.719 1.976zm5.793 17.288c1.916-.42 2.874-1.467 2.874-3.144 0-.748-.239-1.377-.718-1.886-.45-.509-1.168-.988-2.156-1.437v6.467z" fill="#fff"/></svg>