<svg width="80" height="80" fill="none" xmlns="http://www.w3.org/2000/svg"><g clip-path="url(#clip0_1102_23639)" fill="#56C676"><path d="M40.014 58.267a8.66 8.66 0 11-8.66 8.66 8.674 8.674 0 018.66-8.66zm0-3.405a12.057 12.057 0 100 24.115 12.057 12.057 0 000-24.115zm-18.854-7.05a1.682 1.682 0 01-1.283-.603 1.709 1.709 0 01.227-2.397 58.302 58.302 0 008.511-8.639c2.504-3.163 5.966-7.511 8.015-13.895a35.73 35.73 0 001.688-10.164 1.702 1.702 0 011.703-1.667h.042a1.702 1.702 0 011.66 1.738c-.08 3.772-.7 7.512-1.844 11.107-2.27 7.015-5.937 11.633-8.653 15.009a62.638 62.638 0 01-9.008 9.135c-.3.242-.672.374-1.057.376z"/><path d="M41.723 12.291a38.412 38.412 0 01-1.702 10.562 39.045 39.045 0 01-1.703-10.377v-.334a1.702 1.702 0 011.66-1.695h.043a1.702 1.702 0 011.702 1.66v.184zM60.186 47.21a1.701 1.701 0 01-2.398.226 62.638 62.638 0 01-9.007-9.135 49.273 49.273 0 01-7.093-10.959 28.892 28.892 0 01-.937-2.262c.156-.433.298-.873.447-1.32.178-.553.34-1.106.49-1.666.305-1.107.56-2.228.759-3.362.24 1.199.551 2.383.929 3.546 2.085 6.384 5.54 10.732 8.071 13.895a58.302 58.302 0 008.512 8.639 1.71 1.71 0 01.227 2.397z"/><path d="M50.44 10.575l-9.086-9.079a1.872 1.872 0 00-2.539 0l-9.086 9.079a1.7 1.7 0 000 2.412 1.702 1.702 0 002.405 0l6.184-6.185v5.972a35.002 35.002 0 01-.709 6.036 33.213 33.213 0 01-.943 3.468c-2.036 6.384-5.44 10.703-7.994 13.852a58.225 58.225 0 01-8.454 8.583 1.69 1.69 0 001.078 2.993c.392 0 .773-.136 1.078-.383a61.908 61.908 0 008.951-9.086 48.83 48.83 0 006.994-10.845c.34-.71.66-1.51.95-2.312.22-.568.425-1.15.617-1.752.05-.156.092-.312.135-.475a38.417 38.417 0 001.702-10.562V6.674l6.313 6.312a1.702 1.702 0 102.404-2.411z"/><path d="M41.723 22.094v5.248a28.915 28.915 0 01-.936-2.262c.156-.433.298-.873.447-1.32.177-.553.34-1.106.489-1.666zm-1.703 6.929a39.04 39.04 0 001.703 3.547v23.158a1.702 1.702 0 11-3.405 0v-23.13a39.933 39.933 0 001.703-3.575zM12.075 43.649a8.66 8.66 0 11.025 17.32 8.66 8.66 0 01-.025-17.32zm0-3.405a12.057 12.057 0 10-.034 24.115 12.057 12.057 0 00.034-24.115zm55.863 3.405a8.667 8.667 0 11.035 17.335 8.667 8.667 0 01-.035-17.335zm0-3.405a12.058 12.058 0 10.017 24.115 12.058 12.058 0 00-.017-24.115z"/></g><defs><clipPath id="clip0_1102_23639"><path fill="#fff" d="M0 0h80v80H0z"/></clipPath></defs></svg>