<svg width="80" height="80" fill="none" xmlns="http://www.w3.org/2000/svg"><path d="M76.84 20.594a1.411 1.411 0 01-2.414 1.002L67.28 14.45l-.6-.607v26.493a.43.43 0 000 .099 31.766 31.766 0 01-63.525-.924 1.764 1.764 0 013.527 0 28.221 28.221 0 0056.443 0V13.814l-.6.607-7.147 7.175A1.411 1.411 0 1153.38 19.6L63.843 9.172a1.41 1.41 0 01.995-.416h.127c.374.001.731.15.995.416l10.463 10.463c.257.255.406.598.416.96z" fill="#56C676"/><path d="M35.573 23.163a17.074 17.074 0 1017.074 17.052 17.088 17.088 0 00-17.074-17.052zm0 30.267a13.193 13.193 0 1112.193-8.16 13.2 13.2 0 01-12.193 8.16z" fill="#56C676"/><path d="M39.87 43.468a3.767 3.767 0 01-1.115 2.822 4.847 4.847 0 01-2.914 1.32v1.82h-1.327v-1.793a5.645 5.645 0 01-2.906-.924 4.537 4.537 0 01-1.736-2.222l2.025-1.172a2.962 2.962 0 002.617 2.004V41.09a19.44 19.44 0 01-1.495-.628 7.322 7.322 0 01-1.214-.762 3.154 3.154 0 01-.966-1.2 4 4 0 01-.31-1.643 3.635 3.635 0 011.142-2.787 4.749 4.749 0 012.822-1.228v-1.799h1.348v1.82a4.523 4.523 0 013.803 2.823l-1.983 1.15a2.455 2.455 0 00-1.82-1.616v4.05c.437.162.769.289.995.388.225.099.522.24.896.423.316.153.61.348.875.579.227.222.442.457.642.705.228.278.392.603.48.953.095.375.143.762.14 1.15zm-6.992-6.625c-.016.382.121.755.38 1.037.362.351.789.63 1.256.818v-3.527c-.45.056-.87.257-1.199.571-.283.296-.44.69-.437 1.1zm2.963 8.466a2.17 2.17 0 001.249-.65 1.7 1.7 0 00.43-1.163 1.481 1.481 0 00-.41-1.094 4.234 4.234 0 00-1.27-.811v3.718z" fill="#56C676"/></svg>