<svg width="80" height="80" fill="none" xmlns="http://www.w3.org/2000/svg"><path d="M63.145 15.451l-2.01-12.7a1.89 1.89 0 00-3.733.593l1.284 8.114a33.992 33.992 0 00-44.815 50.156 1.891 1.891 0 002.66.24 1.891 1.891 0 00.24-2.66l-.29.247.219-.339a30.218 30.218 0 0139.855-44.526l-8.261 1.313a1.885 1.885 0 10.592 3.725l12.7-2.004a2.14 2.14 0 00.367-.099 1.884 1.884 0 001.227-1.686 3.419 3.419 0 00-.035-.374zm3.492 3.281a1.861 1.861 0 00-1.263-.706 1.841 1.841 0 00-1.41.395 1.907 1.907 0 00-.233 2.745l.049.07a29.935 29.935 0 016.441 18.648A30.218 30.218 0 0123.896 65.43l8.297-1.284a1.89 1.89 0 001.58-2.117 1.905 1.905 0 00-2.158-1.58l-12.7 1.968a1.876 1.876 0 00-1.573 2.117l1.961 12.7a1.884 1.884 0 001.863 1.594c.099.007.198.007.296 0a1.898 1.898 0 001.547-1.426 1.87 1.87 0 00.027-.74l-1.242-8.1a33.993 33.993 0 0044.843-49.831z" fill="#56C676"/><path d="M39.996 30.895a8.96 8.96 0 11-8.953 8.96 8.967 8.967 0 018.96-8.96h-.007zm.008-3.88a12.848 12.848 0 1011.862 7.925 12.84 12.84 0 00-11.87-7.925h.008z" fill="#56C676"/><path d="M39.996 30.74a2.272 2.272 0 01-2.264-2.272v-7.196a2.264 2.264 0 114.53 0v7.196a2.266 2.266 0 01-2.266 2.272zm0 29.935a2.264 2.264 0 01-2.264-2.264v-7.169a2.264 2.264 0 114.53 0v7.197a2.258 2.258 0 01-2.266 2.236zm18.563-17.976h-7.175a2.265 2.265 0 110-4.53h7.175a2.265 2.265 0 110 4.53zm-29.943 0h-7.203a2.265 2.265 0 010-4.53h7.203a2.265 2.265 0 110 4.53zm.939-9.264l-5.087-5.094a2.265 2.265 0 113.203-3.203l5.094 5.094a2.267 2.267 0 11-3.21 3.203zm0 12.855l-5.087 5.094a2.265 2.265 0 103.203 3.203l5.094-5.094a2.267 2.267 0 10-3.21-3.203zm20.439 0l5.087 5.094a2.265 2.265 0 11-3.203 3.203l-5.087-5.094a2.265 2.265 0 013.203-3.203zm0-12.855l5.087-5.094a2.265 2.265 0 10-3.203-3.203l-5.087 5.094a2.265 2.265 0 103.203 3.203z" fill="#56C676"/></svg>