<svg width="38" height="38" fill="none" xmlns="http://www.w3.org/2000/svg"><path d="M34.639 19c0-8.591-6.965-15.556-15.556-15.556-8.59 0-15.555 6.965-15.555 15.556 0 7.764 5.688 14.2 13.125 15.367v-10.87h-3.95V19h3.95v-3.427c0-3.899 2.322-6.052 5.875-6.052 1.702 0 3.483.304 3.483.304v3.828h-1.962c-1.933 0-2.535 1.199-2.535 2.429V19h4.314l-.69 4.496h-3.624v10.87C28.95 33.2 34.639 26.765 34.639 19z" fill="#1877F2"/><path d="M25.139 23.496l.69-4.496h-4.315v-2.918c0-1.23.602-2.43 2.535-2.43h1.961V9.826s-1.78-.304-3.482-.304c-3.553 0-5.875 2.153-5.875 6.052V19h-3.95v4.496h3.95v10.87a15.674 15.674 0 004.86 0v-10.87h3.625z" fill="#fff"/></svg>