<svg width="38" height="38" fill="none" xmlns="http://www.w3.org/2000/svg"><path d="M34.336 15.953h-1.253v-.064h-14v6.222h8.792c-1.283 3.622-4.73 6.222-8.792 6.222a9.334 9.334 0 010-18.666c2.38 0 4.544.897 6.192 2.363l4.4-4.4c-2.778-2.589-6.494-4.186-10.592-4.186-8.59 0-15.555 6.965-15.555 15.556 0 8.59 6.965 15.555 15.555 15.555S34.64 27.59 34.64 19a15.61 15.61 0 00-.303-3.047z" fill="#FFC107"/><path d="M5.321 11.76l5.111 3.748c1.383-3.424 4.732-5.841 8.651-5.841 2.38 0 4.544.897 6.192 2.363l4.4-4.4c-2.778-2.589-6.494-4.186-10.592-4.186-5.975 0-11.156 3.374-13.762 8.316z" fill="#FF3D00"/><path d="M19.083 34.556c4.018 0 7.67-1.538 10.43-4.039l-4.815-4.074a9.263 9.263 0 01-5.615 1.89c-4.046 0-7.481-2.58-8.775-6.18l-5.073 3.908c2.575 5.038 7.803 8.495 13.848 8.495z" fill="#4CAF50"/><path d="M34.337 15.953h-1.254v-.064h-14v6.222h8.792a9.364 9.364 0 01-3.18 4.333l.003-.002 4.815 4.074c-.34.31 5.126-3.738 5.126-11.516a15.61 15.61 0 00-.303-3.047z" fill="#1976D2"/></svg>