<svg width="248" height="64" fill="none" xmlns="http://www.w3.org/2000/svg"><g clip-path="url(#clip0_1402_33841)"><path d="M46.164 34.027c18.167-6.613 31.934-14.612 30.75-17.867-1.185-3.255-16.873-.533-35.04 6.08-18.168 6.612-31.935 14.61-30.75 17.866 1.184 3.255 16.872.533 35.04-6.08z" fill="#3B4653"/><path d="M58.815 21.69H33.347a8.421 8.421 0 00-8.422 8.42v25.47A8.421 8.421 0 0033.347 64h25.468a8.421 8.421 0 008.421-8.421V30.11a8.421 8.421 0 00-8.421-8.422z" fill="url(#paint0_linear_1402_33841)"/><path d="M57.438 26.669h-.007a3.73 3.73 0 00-3.73 3.73V55.29a3.73 3.73 0 003.73 3.73h.007a3.73 3.73 0 003.73-3.73V30.399a3.73 3.73 0 00-3.73-3.73zM46.08 36.622h-.006a3.73 3.73 0 00-3.73 3.73V55.29a3.73 3.73 0 003.73 3.73h.007a3.73 3.73 0 003.73-3.73V40.35a3.73 3.73 0 00-3.73-3.73zm-11.357 9.952h-.007a3.73 3.73 0 00-3.73 3.73v4.987a3.73 3.73 0 003.73 3.73h.007a3.73 3.73 0 003.73-3.73v-4.987a3.73 3.73 0 00-3.73-3.73zm-.007-7.466a3.73 3.73 0 100-7.46 3.73 3.73 0 000 7.46z" fill="#fff"/><path d="M42.138 4.288a6.518 6.518 0 10-12.25 4.459l4.872 13.385a6.518 6.518 0 1012.25-4.459L42.138 4.289z" fill="#3B4653"/><path d="M76.908 16.154A228.972 228.972 0 0011.13 40.112c-2.58-2.744-5.156-5.488-7.726-8.232a229.302 229.302 0 0174.12-26.963 4496.61 4496.61 0 01-.617 11.237z" fill="#3B4653"/><path d="M77.526 4.917l-.618 11.237A228.974 228.974 0 0011.13 40.112c-2.58-2.744-5.156-5.488-7.726-8.231a229.465 229.465 0 0174.12-26.964zm.941-1.068l-1.096.197A230.342 230.342 0 002.97 31.115L2 31.67l.766.815 3.645 3.898 4.06 4.354.47.5.597-.33a227.91 227.91 0 0165.545-23.881l.703-.134v-.702l.309-5.62.302-5.618.063-1.117.007.014z" fill="#fff"/><path d="M9.953 35.84a10.155 10.155 0 01-1.541-.173c-.81-.131-1.646-.262-2.074 0l-.498-.773c.691-.455 1.728-.296 2.71-.137.843.137 1.714.275 2.205 0 .49-.276.691-1.056.954-1.828.325-.979.691-1.993 1.459-2.448.767-.455 1.756-.214 2.765 0 .83.18 1.694.359 2.184.097.491-.262.754-1.028 1.051-1.786.373-.966.76-1.952 1.57-2.365.808-.414 1.776-.131 2.765.13.815.214 1.666.435 2.163.2.498-.234.809-1 1.148-1.744.415-.938.85-1.903 1.673-2.276.822-.372 1.783-.041 2.765.262.809.256 1.638.524 2.143.31.505-.213.864-.958 1.237-1.689.463-.917.94-1.861 1.784-2.193.843-.33 1.79.049 2.765.4.795.297 1.61.6 2.122.414.512-.186.934-.938 1.341-1.662.491-.875.996-1.772 1.818-2.068.823-.297 1.819.138 2.766.544.746.331 1.52.69 2.011.518.491-.173.975-.89 1.383-1.6.532-.841 1.078-1.717 1.915-1.952.836-.234 1.81.228 2.723.69.733.358 1.494.73 1.977.607.484-.124 1.024-.841 1.508-1.531.566-.814 1.154-1.662 1.997-1.855.844-.193 1.805.317 2.696.814.692.4 1.445.806 1.936.69.49-.118 1.072-.8 1.59-1.463.608-.786 1.23-1.593 2.074-1.744.843-.152 1.797.4 2.675.945.691.427 1.383.868 1.874.793.49-.076 1.126-.752 1.672-1.38.547-.627 1.3-1.517 2.136-1.627l.125.91c-.49.062-1.037.69-1.562 1.317-.692.773-1.341 1.566-2.226 1.704-.885.137-1.68-.407-2.51-.918-.691-.455-1.465-.917-2.018-.827-.553.09-1.016.758-1.514 1.379-.622.8-1.258 1.627-2.13 1.8-.87.172-1.714-.324-2.564-.8-.85-.476-1.507-.841-2.074-.69-.567.152-.975.807-1.445 1.483-.58.82-1.175 1.675-2.032 1.896-.857.22-1.728-.241-2.613-.69-.76-.379-1.542-.772-2.074-.62-.532.152-.947.862-1.383 1.558-.539.849-1.085 1.724-1.928 1.986-.844.262-1.75-.158-2.648-.551-.774-.338-1.576-.69-2.074-.517-.498.172-.906.903-1.306 1.627-.491.869-1.003 1.772-1.825 2.069-.823.296-1.812-.07-2.766-.421-.78-.29-1.59-.586-2.074-.4-.483.186-.912.986-1.3 1.752-.441.875-.905 1.785-1.693 2.116-.788.331-1.818 0-2.765-.275-.795-.255-1.618-.518-2.074-.304-.456.214-.87 1.034-1.216 1.814-.401.896-.816 1.827-1.59 2.2-.775.372-1.819.11-2.766-.145-.802-.214-1.631-.435-2.074-.2-.442.234-.96 1.096-1.3 1.896-.359.91-.725 1.862-1.472 2.262-.746.4-1.818.207-2.813 0-.802-.173-1.639-.352-2.074-.097-.436.255-.774 1.124-1.044 1.945-.27.82-.629 1.882-1.382 2.317-.378.21-.806.315-1.238.303zm95.541 19.219a13.654 13.654 0 01-23.332-9.714 13.696 13.696 0 0123.332-9.707 13.199 13.199 0 013.969 9.707 13.215 13.215 0 01-3.969 9.714zm-15.74-3.512a8.759 8.759 0 0012.095 0 8.36 8.36 0 002.437-6.18 8.423 8.423 0 00-2.437-6.196 8.703 8.703 0 00-12.095 0 8.428 8.428 0 00-2.444 6.195 8.33 8.33 0 002.444 6.16v.02zm34.135-15.213c-2.655-.204-3.975.864-3.975 3.188v.19h3.273v4.657h-3.273v14.124h-4.832V44.37h-3.407v-4.657h3.407v-.19c0-2.654.737-4.67 2.212-6.047 1.475-1.377 3.678-1.978 6.609-1.805l-.014 4.664zm14.202 0c-2.655-.204-3.982.864-3.982 3.188v.19h3.982v4.657h-3.982v14.124h-4.847V44.37h-2.704v-4.657h2.704v-.19c0-2.654.74-4.67 2.22-6.047 1.48-1.377 3.683-1.978 6.609-1.805v4.664zm6.3 14.756c.656 2.342 2.421 3.512 5.296 3.512a4.96 4.96 0 004.215-1.875l3.905 2.255c-1.873 2.678-4.603 4.017-8.19 4.017-3.104 0-5.595-.936-7.473-2.81a9.646 9.646 0 01-2.81-7.1 9.71 9.71 0 012.81-7.08 9.548 9.548 0 017.136-2.81 8.945 8.945 0 016.813 2.859 9.91 9.91 0 012.69 7.024 11.14 11.14 0 01-.19 1.987l-14.202.021zm-.077-3.75h9.581a4.544 4.544 0 00-1.707-2.859 4.916 4.916 0 00-2.95-.941 5.106 5.106 0 00-3.231.997 4.764 4.764 0 00-1.693 2.803zm21.949-4.397a5.044 5.044 0 012.234-2.704 6.793 6.793 0 013.477-.906v5.415a5.67 5.67 0 00-3.962.906c-1.166.773-1.749 2.063-1.749 3.87v8.97h-4.825V39.712h4.846l-.021 3.231zm22.09-3.231h4.846v18.781h-4.846v-2.22A7.372 7.372 0 01182.228 59a8.52 8.52 0 01-6.44-2.873 10.533 10.533 0 010-14.09 8.496 8.496 0 016.44-2.872 7.386 7.386 0 016.125 2.74v-2.192zm-8.941 13.204a4.98 4.98 0 003.715 1.482 5.047 5.047 0 003.737-1.482 5.616 5.616 0 000-7.627 5.047 5.047 0 00-3.737-1.482 4.99 4.99 0 00-3.715 1.482 5.688 5.688 0 000 7.627zm28.923-8.547h-4.214v7.81a1.884 1.884 0 00.485 1.405c.397.323.892.502 1.404.505.777.042 1.556.042 2.332 0v4.397c-3.329.375-5.67.061-7.023-.94-1.354-1.003-2.035-2.794-2.044-5.374v-7.803h-3.273v-4.657h3.273v-3.793l4.846-1.468v5.26h4.214v4.658zm6.947 6.721c.651 2.342 2.416 3.512 5.296 3.512a4.949 4.949 0 004.214-1.875l3.912 2.255c-1.859 2.678-4.591 4.017-8.197 4.017-3.104 0-5.597-.937-7.48-2.81a9.645 9.645 0 01-2.809-7.1 9.709 9.709 0 012.809-7.08 9.58 9.58 0 017.136-2.81 8.963 8.963 0 016.82 2.859 9.902 9.902 0 012.683 7.023 11.726 11.726 0 01-.182 1.988l-14.202.021zm-.07-3.75h9.573a4.535 4.535 0 00-1.707-2.859 4.917 4.917 0 00-2.95-.941 5.12 5.12 0 00-3.231.997 4.753 4.753 0 00-1.685 2.803zm21.078-2.297c0 .506.33.913.99 1.222a13.3 13.3 0 002.423.829 26.31 26.31 0 012.859.899 5.57 5.57 0 012.423 1.826 5.04 5.04 0 01.997 3.189 5.155 5.155 0 01-2.163 4.453 8.967 8.967 0 01-5.387 1.538c-3.863 0-6.495-1.489-7.895-4.467l4.215-2.367c.554 1.623 1.777 2.437 3.687 2.437 1.728 0 2.592-.54 2.592-1.615 0-.499-.337-.906-.998-1.222a15.042 15.042 0 00-2.423-.843 25.118 25.118 0 01-2.858-.941 5.874 5.874 0 01-2.424-1.784 4.703 4.703 0 01-.99-3.056 5.276 5.276 0 012.044-4.382 8.05 8.05 0 015.092-1.595 8.497 8.497 0 014.165 1.033 7.501 7.501 0 012.971 2.95l-4.102 2.275a3.087 3.087 0 00-3.006-1.917 2.81 2.81 0 00-1.559.414 1.286 1.286 0 00-.653 1.124z" fill="#fff"/></g><defs><linearGradient id="paint0_linear_1402_33841" x1="25.04" y1="22.4" x2="67.28" y2="64" gradientUnits="userSpaceOnUse"><stop stop-color="#56C676"/><stop offset="1" stop-color="#56C676" stop-opacity=".6"/></linearGradient><clipPath id="clip0_1402_33841"><path fill="#fff" d="M0 0h248v64H0z"/></clipPath></defs></svg>