<svg width="132" height="38" fill="none" xmlns="http://www.w3.org/2000/svg"><g clip-path="url(#clip0_1402_41111)"><path d="M8.867 6.086a9.02 9.02 0 00-6.686 2.918L4.36 11.4a5.648 5.648 0 014.477-2.175c3.1 0 5.596 2.395 5.596 5.37 0 2.973-2.497 5.369-5.596 5.369a5.69 5.69 0 01-4.85-2.699L0 20.652v8.537h3.271v-7.986a9.095 9.095 0 005.596 1.9c4.907.027 8.867-3.8 8.867-8.509 0-4.708-3.96-8.508-8.867-8.508zm19.398 17.017a9.02 9.02 0 006.686-2.919l-2.18-2.396a5.648 5.648 0 01-4.477 2.176c-3.128 0-5.624-2.423-5.624-5.37 0-2.946 2.496-5.37 5.595-5.37a5.69 5.69 0 014.85 2.7l4.017-3.388V0h-3.271v7.986a9.094 9.094 0 00-5.596-1.9c-4.907-.028-8.867 3.8-8.867 8.508 0 4.709 3.96 8.509 8.867 8.509zM42.04 0h-3.272v22.773h3.271V0z" fill="#56C676"/><path d="M50.103 12.804h-4.936v3.14h4.936v-3.14zm-41.351-2.12a3.72 3.72 0 00-.775.083v.88c-.918.194-1.463.744-1.463 1.488 0 1.68 3.185 2.148 3.185 3.194 0 .303-.23.578-.803.578-.689 0-.976-.413-1.148-1.101l-1.435.193c.23.853.631 1.542 1.664 1.762v.66a3.71 3.71 0 001.55 0v-.605c1.12-.165 1.808-.743 1.808-1.57 0-1.707-3.185-2.147-3.185-3.194 0-.303.258-.495.66-.495.545 0 .803.33 1.004.963l1.463-.247c-.287-.882-.774-1.487-1.779-1.653v-.853a3.252 3.252 0 00-.746-.083zm51.222-4.598a9.02 9.02 0 00-6.686 2.918l2.18 2.396a5.648 5.648 0 014.477-2.175c3.1 0 5.596 2.395 5.596 5.37 0 2.973-2.497 5.369-5.596 5.369a5.69 5.69 0 01-4.85-2.699l-4.017 3.387v8.537h3.272v-7.986a9.094 9.094 0 005.595 1.9c4.907 0 8.867-3.8 8.867-8.509.029-4.708-3.931-8.508-8.838-8.508zm54.349 0v16.686h3.272V6.087h-3.272zm0-5.26v3.14h3.272V.825h-3.272zM81.151 9.225v-3.14h-1.234a9.011 9.011 0 00-5.567 1.9v-1.9h-3.27v16.689h3.27v-1.708l.03-6.47c0-2.947 2.496-5.343 5.566-5.343l1.205-.027zm8.867-3.167c-4.907 0-8.867 3.8-8.867 8.509 0 4.708 3.96 8.508 8.867 8.508 4.907 0 8.867-3.8 8.867-8.508 0-4.709-3.96-8.509-8.867-8.509zm0 13.878c-3.07 0-5.567-2.395-5.567-5.342 0-2.946 2.497-5.342 5.567-5.342 3.07 0 5.567 2.396 5.567 5.342 0 2.947-2.496 5.342-5.567 5.342zm41.695 2.836v-3.139l-3.271-.027c-3.071 0-5.567-2.396-5.567-5.342h-.029v-5.15h5.567V5.948h-5.567V.826h-3.271v13.438c0 4.708 3.96 8.508 8.838 8.508h3.3zM112.458 3.965V.826h-3.271c-4.878 0-8.838 3.828-8.838 8.509v13.437h3.242v-10.38h5.567V9.224h-5.567c.058-2.92 2.526-5.26 5.567-5.26h3.3zM72.973 31.391c.316 0 .603.055.832.193.258.138.46.33.574.55.144.249.201.524.201.827 0 .303-.057.578-.2.826a1.537 1.537 0 01-.575.55 1.68 1.68 0 01-.832.194c-.23 0-.43-.028-.603-.11a1.378 1.378 0 01-.459-.331v.413h-.746v-4.296h.746v1.57c.115-.138.287-.248.46-.303.2-.055.373-.083.602-.083zm-.086 2.561c.287 0 .516-.082.689-.275.172-.165.258-.413.258-.689 0-.303-.086-.523-.258-.688a.97.97 0 00-.689-.275.976.976 0 00-.488.11.971.971 0 00-.344.33c-.086.138-.115.33-.115.523s.029.358.115.524a.97.97 0 00.344.33c.144.055.287.11.488.11zm5.883-2.533l-1.521 3.332c-.144.33-.316.578-.517.716-.2.137-.459.22-.717.22-.172 0-.316-.028-.488-.083-.144-.055-.287-.11-.373-.22l.316-.523c.086.055.143.11.258.165.115.028.2.055.316.055.143 0 .23-.027.315-.11a.63.63 0 00.23-.33l.057-.11-1.406-3.112h.775l1.004 2.285 1.033-2.285h.718zm20.66-.276h-1.377v-.633h3.53v.633h-1.378v3.36h-.775v-3.36zm5.883 3.36l-.861-1.157h-1.119v1.157h-.775V30.51h1.693c.373 0 .66.055.947.165.259.11.459.276.603.496.143.22.201.468.201.743 0 .303-.086.551-.23.771-.143.22-.373.386-.66.496l.947 1.322h-.746zm-.029-2.561c0-.248-.086-.44-.258-.578-.172-.138-.43-.193-.775-.193h-.889v1.597h.889c.345 0 .603-.083.775-.22a.794.794 0 00.258-.606zm2.095-1.432h.775v3.993h-.775V30.51zm4.276 4.048c-.431 0-.804-.083-1.148-.275-.344-.193-.603-.413-.804-.744-.2-.303-.286-.66-.286-1.046s.086-.744.286-1.047c.201-.303.46-.55.804-.743a2.598 2.598 0 011.148-.276c.43 0 .803.083 1.148.276.344.165.602.413.803.743.201.303.287.661.287 1.047 0 .385-.086.743-.287 1.046-.201.303-.459.55-.803.744-.345.192-.718.275-1.148.275zm0-.66c.287 0 .516-.056.746-.194.229-.11.402-.275.516-.495.115-.22.201-.44.201-.716 0-.276-.057-.496-.201-.716a1.103 1.103 0 00-.516-.496c-.23-.11-.459-.193-.746-.193s-.517.055-.746.193c-.23.138-.402.276-.517.496-.115.22-.201.44-.201.716 0 .275.058.495.201.716.115.22.287.385.517.495.229.138.488.193.746.193zm7.202-3.388v3.993h-.631l-2.296-2.699v2.699h-.774V30.51h.631l2.296 2.699V30.51h.774zm1.55 0h.775v3.993h-.775V30.51zm3.788 2.313l-.66.661v1.019h-.775V30.51h.775v2.038l2.037-2.038h.861l-1.75 1.79 1.836 2.203h-.889l-1.435-1.68zm6.399.744h-2.066l-.402.908h-.803l1.865-3.992h.746l1.865 3.992h-.803l-.402-.908zm-.258-.579l-.775-1.734-.775 1.734h1.55z" fill="#fff"/><path fill-rule="evenodd" clip-rule="evenodd" d="M94.437 31.694l-2.353-3.91c-.287-.496-.86-.799-1.434-.799h-4.707c-.602 0-1.147.303-1.434.799l-2.353 3.91a1.59 1.59 0 000 1.597l2.353 3.91c.287.496.86.799 1.434.799h4.707c.602 0 1.147-.303 1.434-.799l2.353-3.91a1.465 1.465 0 000-1.597zm-3.988 1.13l-1.378 2.312c-.057.083-.143.138-.23.138h-1.893c-.115 0-.201-.138-.144-.22l.66-1.074c.029-.055.029-.11 0-.138l-.66-1.102a.32.32 0 010-.385l.66-1.101c.029-.056.029-.11 0-.138l-.66-1.074c-.057-.11.029-.22.144-.22h1.894c.086 0 .172.055.23.137l1.377 2.313c.115.11.115.33 0 .551z" fill="#F0B020"/></g><defs><clipPath id="clip0_1402_41111"><path fill="#fff" d="M0 0h132v38H0z"/></clipPath></defs></svg>