<svg width="80" height="13" fill="none" xmlns="http://www.w3.org/2000/svg"><g clip-path="url(#clip0_1402_50832)"><path d="M12.438 11.966H9.062a4.13 4.13 0 01-4.076-3.409 1.022 1.022 0 01.824-1.18 1.022 1.022 0 011.181.824 2.097 2.097 0 002.071 1.733h3.376a2.112 2.112 0 002.107-2.105 2.112 2.112 0 00-2.107-2.105 1.023 1.023 0 01-1.021-1.02c0-.56.46-1.02 1.02-1.02a4.146 4.146 0 014.142 4.138 4.147 4.147 0 01-4.141 4.144z" fill="url(#paint0_radial_1402_50832)"/><path d="M4.141 3.692h3.376A4.13 4.13 0 0111.593 7.1a1.021 1.021 0 01-.824 1.18 1.022 1.022 0 01-1.181-.823 2.097 2.097 0 00-2.071-1.734H4.141c-1.159 0-2.107.947-2.107 2.105s.948 2.105 2.107 2.105c.562 0 1.021.46 1.021 1.02s-.46 1.02-1.02 1.02A4.157 4.157 0 010 7.829c0-2.28 1.86-4.137 4.141-4.137z" fill="url(#paint1_radial_1402_50832)"/><path d="M25.649 3.44c-1.159 0-2.124.415-2.912 1.263-.772.832-1.158 1.871-1.158 3.135 0 1.264.386 2.303 1.158 3.151.788.832 1.753 1.248 2.912 1.248.949 0 1.801-.304 2.541-.896v.656h1.995V3.68H28.19v.656a3.974 3.974 0 00-2.541-.896zm1.85 2.686c.434.464.659 1.024.659 1.712s-.225 1.248-.66 1.711a2.09 2.09 0 01-1.592.688 2.125 2.125 0 01-1.609-.688c-.434-.463-.643-1.023-.643-1.711 0-.688.209-1.248.643-1.712a2.125 2.125 0 011.609-.687 2.09 2.09 0 011.592.687zm4.97-.72v6.591h2.011v-6.59h3.073v6.59h2.01v-6.59h1.995V3.679h-1.994V2.91a.987.987 0 011.013-1.007h.981V0h-1.126c-.82 0-1.496.256-2.059.752-.547.496-.82 1.135-.82 1.887v1.04H34.48v-.768a.987.987 0 011.013-1.008h.981V0H35.35c-.82 0-1.496.256-2.059.752-.547.496-.82 1.135-.82 1.887v1.04H31.2v1.728h1.27zm16.28.273c-.209-1.392-1.383-2.24-3.2-2.24-1.914 0-3.233.848-3.233 2.591 0 1.168.579 1.856 1.994 2.32l1.721.544c.628.208.933.48.933.8 0 .511-.579.815-1.351.815-.917 0-1.496-.4-1.64-.992l-1.883.272c.242 1.52 1.464 2.448 3.475 2.448 1.93 0 3.313-.88 3.313-2.608 0-1.2-.643-1.967-2.187-2.495l-1.721-.576c-.5-.176-.74-.4-.74-.672 0-.463.514-.72 1.174-.72.804 0 1.287.273 1.464.816l1.882-.303zm.75-.256h1.19v3.95c0 .752.274 1.376.821 1.872.547.496 1.223.752 2.027.752h1.238v-1.904H53.73c-.595 0-1.03-.431-1.03-1.007V5.423h2.075V3.679H52.7V2.048h-2.01v1.631H49.5v1.744zm7.469 5.566c.852.832 1.898 1.248 3.169 1.248 1.27 0 2.316-.416 3.169-1.248.852-.848 1.27-1.887 1.27-3.151 0-1.264-.418-2.303-1.27-3.135-.853-.848-1.898-1.264-3.17-1.264-1.27 0-2.316.416-3.168 1.264-.837.832-1.255 1.871-1.255 3.135 0 1.264.418 2.303 1.255 3.151zm1.496-4.863c.45-.464 1.013-.687 1.673-.687.66 0 1.222.223 1.673.687.45.464.675 1.024.675 1.712s-.225 1.248-.675 1.711c-.45.464-1.014.688-1.673.688-.66 0-1.223-.224-1.673-.688-.45-.463-.676-1.023-.676-1.711 0-.688.225-1.248.676-1.712zm9.509-2.447h-2.01v8.318h2.01V7.422c0-1.104.82-1.935 1.93-1.935.29 0 .563.064.82.175V3.44c-1.254 0-2.171.416-2.75 1.264V3.679zm11.963 4.895c.048-.32.064-.56.064-.736 0-1.248-.418-2.287-1.27-3.135-.837-.848-1.883-1.264-3.121-1.264-1.239 0-2.284.416-3.137 1.264-.836.832-1.255 1.871-1.255 3.135 0 1.264.435 2.303 1.287 3.151.869.832 1.947 1.248 3.233 1.248 1.69 0 3.137-.832 3.91-2.16l-1.947-.56c-.483.592-1.142.88-1.963.88-1.174 0-2.139-.736-2.445-1.823h6.644zm-6.628-1.552c.306-1.04 1.223-1.743 2.269-1.743 1.093 0 2.026.704 2.348 1.743h-4.617z" fill="#fff"/></g><defs><radialGradient id="paint0_radial_1402_50832" cx="0" cy="0" r="1" gradientUnits="userSpaceOnUse" gradientTransform="rotate(97.008 4.112 7.886) scale(5.462 6.51236)"><stop offset=".201" stop-color="#BCF200" stop-opacity="0"/><stop offset=".374" stop-color="#BCF200" stop-opacity=".2"/><stop offset=".562" stop-color="#BCF200" stop-opacity=".5"/><stop offset=".998" stop-color="#BCF200"/></radialGradient><radialGradient id="paint1_radial_1402_50832" cx="0" cy="0" r="1" gradientUnits="userSpaceOnUse" gradientTransform="rotate(-97.008 6.885 3.607) scale(5.462 6.51236)"><stop offset=".201" stop-color="#BCF200" stop-opacity="0"/><stop offset=".374" stop-color="#BCF200" stop-opacity=".2"/><stop offset=".562" stop-color="#BCF200" stop-opacity=".5"/><stop offset=".998" stop-color="#BCF200"/></radialGradient><clipPath id="clip0_1402_50832"><path fill="#fff" d="M0 0h80v12.237H0z"/></clipPath></defs></svg>