<svg width="20" height="20" fill="none" xmlns="http://www.w3.org/2000/svg"><path d="M18.04 2.103a.172.172 0 00-.13-.133c-2.124-.52-7.03 1.332-9.692 3.991-.474.47-.907.982-1.293 1.527-.82-.074-1.64-.012-2.339.293-1.972.867-2.546 3.132-2.706 4.104a.352.352 0 00.383.406l3.167-.347c.002.239.016.477.043.715a.71.71 0 00.207.433l1.226 1.226a.71.71 0 00.433.207c.236.026.474.04.711.043l-.347 3.164a.352.352 0 00.406.383c.972-.157 3.242-.73 4.104-2.702.305-.7.367-1.516.297-2.332a11.451 11.451 0 001.53-1.293c2.672-2.656 4.511-7.455 4-9.685zm-6.374 6.244a1.668 1.668 0 112.36-2.359 1.668 1.668 0 01-2.36 2.36z" stroke="#fff" stroke-linecap="round" stroke-linejoin="round"/><path d="M4.283 13.75a1.76 1.76 0 00-1.03.502c-.688.69-.753 3.248-.753 3.248s2.56-.065 3.248-.754a1.75 1.75 0 00.502-1.03" stroke="#fff" stroke-linecap="round" stroke-linejoin="round"/></svg>