<svg width="38" height="38" viewBox="0 0 38 38" fill="none" xmlns="http://www.w3.org/2000/svg">
<path d="M26.9226 31.7518C25.229 33.3936 23.3798 33.1344 21.5998 32.3567C19.7161 31.5617 17.9879 31.5271 16.0005 32.3567C13.5119 33.4281 12.1985 33.1171 10.7123 31.7518C2.2788 23.0591 3.52309 9.82125 13.0972 9.33736C15.4302 9.45833 17.0547 10.6162 18.42 10.7199C20.4592 10.3051 22.4121 9.1127 24.5896 9.26823C27.1991 9.47561 29.1692 10.5125 30.4654 12.3789C25.0735 15.6106 26.3523 22.7134 31.2949 24.7009C30.3098 27.2931 29.031 29.8681 26.9053 31.7691L26.9226 31.7518ZM18.2472 9.23367C17.9879 5.37983 21.1159 2.19999 24.7105 1.88892C25.2117 6.34761 20.6666 9.66571 18.2472 9.23367Z" fill="white"/>
</svg>
