<svg width="586" height="123" viewBox="0 0 586 123" fill="none" xmlns="http://www.w3.org/2000/svg">
<g filter="url(#filter0_d_1263_67866)">
<path d="M113.46 99.277L113.539 98.2802L113.46 99.277ZM308.887 54.0837L309.287 55.0002L309.327 54.9827L309.365 54.9618L308.887 54.0837ZM577.965 71.7295C578.11 71.1968 577.797 70.6468 577.264 70.5012L568.583 68.1271C568.05 67.9814 567.5 68.2952 567.354 68.8279C567.208 69.3606 567.522 69.9106 568.055 70.0563L575.772 72.1665L573.661 79.8832C573.516 80.4159 573.829 80.9659 574.362 81.1116C574.895 81.2572 575.445 80.9435 575.591 80.4108L577.965 71.7295ZM9 73.4523C8.66287 74.3937 8.66318 74.3938 8.66374 74.394C8.66424 74.3942 8.66503 74.3945 8.66604 74.3949C8.66805 74.3956 8.67102 74.3966 8.67493 74.398C8.68277 74.4008 8.69439 74.405 8.70977 74.4105C8.74054 74.4214 8.78632 74.4377 8.84681 74.4592C8.96778 74.5022 9.14756 74.5659 9.38358 74.649C9.85561 74.8152 10.5526 75.0591 11.4541 75.3706C13.257 75.9935 15.8779 76.8867 19.1527 77.9688C25.7018 80.1328 34.868 83.0528 45.3379 86.0771C66.2589 92.1203 92.4547 98.601 113.38 100.274L113.539 98.2802C92.8263 96.6243 66.7922 90.1926 45.8929 84.1556C35.4527 81.1399 26.3112 78.2278 19.7802 76.0698C16.5148 74.9908 13.9025 74.1005 12.1073 73.4802C11.2096 73.1701 10.5163 72.9274 10.0478 72.7625C9.81351 72.68 9.63545 72.6169 9.51616 72.5746C9.45651 72.5534 9.41155 72.5374 9.38161 72.5267C9.36664 72.5213 9.35542 72.5173 9.34799 72.5147C9.34428 72.5134 9.34151 72.5124 9.3397 72.5117C9.3388 72.5114 9.33815 72.5112 9.3377 72.511C9.3373 72.5109 9.33713 72.5108 9 73.4523ZM113.38 100.274C152.422 103.395 201.434 92.0445 240.598 79.9647C260.198 73.9191 277.366 67.6796 289.635 62.9515C295.769 60.5874 300.679 58.6007 304.057 57.2045C305.746 56.5064 307.052 55.9559 307.937 55.5797C308.379 55.3915 308.716 55.247 308.942 55.1493C309.056 55.1004 309.141 55.0633 309.199 55.0383C309.228 55.0258 309.25 55.0164 309.264 55.01C309.271 55.0068 309.277 55.0044 309.281 55.0028C309.283 55.0019 309.284 55.0013 309.285 55.0009C309.286 55.0004 309.287 55.0002 308.887 54.0837C308.486 53.1672 308.486 53.1674 308.485 53.1677C308.485 53.1681 308.483 53.1686 308.482 53.1694C308.478 53.1709 308.473 53.1731 308.466 53.1762C308.452 53.1822 308.431 53.1914 308.403 53.2036C308.347 53.228 308.262 53.2645 308.151 53.3127C307.927 53.4091 307.593 53.5525 307.154 53.7393C306.275 54.113 304.976 54.6608 303.293 55.3561C299.929 56.7468 295.033 58.7275 288.915 61.0853C276.679 65.8013 259.555 72.0245 240.008 78.0535C200.879 90.1228 152.178 101.369 113.539 98.2802L113.38 100.274ZM308.887 54.0837C309.365 54.9618 309.366 54.9616 309.366 54.9611C309.367 54.9606 309.369 54.9599 309.37 54.9589C309.374 54.9569 309.38 54.9538 309.387 54.9497C309.402 54.9416 309.425 54.9293 309.455 54.9129C309.515 54.8802 309.606 54.8313 309.725 54.7669C309.964 54.638 310.32 54.447 310.785 54.199C311.716 53.7029 313.086 52.979 314.838 52.069C318.343 50.2489 323.38 47.6845 329.502 44.7091C341.747 38.7573 358.326 31.1664 375.671 24.6004C393.028 18.0297 411.097 12.5071 426.341 10.6592C433.962 9.73522 440.824 9.7372 446.513 10.9547C452.194 12.1705 456.641 14.5825 459.556 18.4333L461.151 17.2263C457.863 12.8827 452.926 10.2819 446.931 8.99898C440.945 7.71781 433.841 7.73532 426.1 8.67372C410.617 10.5506 392.371 16.14 374.962 22.73C357.542 29.3246 340.905 36.943 328.627 42.9103C322.487 45.8945 317.435 48.4671 313.917 50.2941C312.157 51.2076 310.781 51.9348 309.845 52.434C309.376 52.6835 309.018 52.8761 308.776 53.0065C308.655 53.0716 308.564 53.1213 308.502 53.1547C308.471 53.1714 308.448 53.184 308.432 53.1926C308.424 53.1968 308.418 53.2001 308.414 53.2022C308.412 53.2033 308.411 53.2042 308.41 53.2047C308.409 53.2053 308.408 53.2057 308.887 54.0837ZM459.556 18.4333C465.53 26.3265 466.076 34.6834 463.9 43.1894C461.71 51.7521 456.782 60.3861 451.875 68.7236C447.012 76.9843 442.127 85.0138 440.288 92.1683C439.361 95.7733 439.181 99.2443 440.216 102.466C441.257 105.703 443.488 108.575 447.176 111.035L448.286 109.371C444.901 107.113 442.998 104.584 442.12 101.854C441.238 99.108 441.357 96.0452 442.225 92.6663C443.977 85.8532 448.668 78.1146 453.598 69.7382C458.484 61.4386 463.566 52.5664 465.838 43.685C468.124 34.7469 467.581 25.7218 461.151 17.2263L459.556 18.4333ZM447.176 111.035C450.92 113.532 455.795 114.721 461.366 114.956C466.944 115.191 473.296 114.475 480.065 113.091C493.603 110.326 508.946 104.866 523.361 98.8337C537.783 92.7986 551.315 86.1746 561.238 81.0612C566.201 78.504 570.263 76.3236 573.085 74.7819C574.496 74.011 575.598 73.3998 576.347 72.981C576.722 72.7716 577.008 72.6102 577.201 72.5011C577.298 72.4465 577.371 72.405 577.42 72.377C577.445 72.3631 577.464 72.3525 577.476 72.3453C577.482 72.3418 577.487 72.3391 577.49 72.3372C577.492 72.3363 577.493 72.3356 577.494 72.3351C577.495 72.3346 577.496 72.3343 577 71.4657C576.504 70.5972 576.504 70.5973 576.504 70.5977C576.503 70.5981 576.502 70.5987 576.5 70.5995C576.497 70.6012 576.493 70.6037 576.487 70.6071C576.475 70.6139 576.457 70.6242 576.433 70.6378C576.385 70.6651 576.313 70.7059 576.218 70.7598C576.027 70.8675 575.743 71.0273 575.371 71.2353C574.627 71.6511 573.532 72.2591 572.126 73.0267C569.316 74.5618 565.268 76.7346 560.322 79.2834C550.428 84.3819 536.947 90.9807 522.589 96.9888C508.223 103 493.017 108.404 479.664 111.132C472.988 112.496 466.81 113.184 461.45 112.958C456.084 112.731 451.614 111.591 448.286 109.371L447.176 111.035Z" fill="white"/>
</g>
<defs>
<filter id="filter0_d_1263_67866" x="0.663696" y="0" width="585.337" height="123" filterUnits="userSpaceOnUse" color-interpolation-filters="sRGB">
<feFlood flood-opacity="0" result="BackgroundImageFix"/>
<feColorMatrix in="SourceAlpha" type="matrix" values="0 0 0 0 0 0 0 0 0 0 0 0 0 0 0 0 0 0 127 0" result="hardAlpha"/>
<feOffset/>
<feGaussianBlur stdDeviation="4"/>
<feComposite in2="hardAlpha" operator="out"/>
<feColorMatrix type="matrix" values="0 0 0 0 1 0 0 0 0 1 0 0 0 0 1 0 0 0 1 0"/>
<feBlend mode="normal" in2="BackgroundImageFix" result="effect1_dropShadow_1263_67866"/>
<feBlend mode="normal" in="SourceGraphic" in2="effect1_dropShadow_1263_67866" result="shape"/>
</filter>
</defs>
</svg>
