<svg width="197" height="240" viewBox="0 0 197 240" fill="none" xmlns="http://www.w3.org/2000/svg">
<rect x="17.174" y="231.625" width="168.581" height="8.37234" rx="4.18617" fill="white"/>
<rect x="17.174" y="129.48" width="19.8331" height="93.6333" rx="9.91656" fill="#56C676"/>
<rect x="46.9218" y="86.9219" width="19.8331" height="136.194" rx="9.91656" fill="#56C676"/>
<rect x="76.6685" y="129.48" width="19.8331" height="93.6333" rx="9.91656" fill="#56C676"/>
<rect x="106.422" y="103.949" width="19.8331" height="119.17" rx="9.91656" fill="#56C676"/>
<rect x="136.166" y="78.4102" width="19.8331" height="144.706" rx="9.91656" fill="#56C676"/>
<rect x="165.916" y="61.3828" width="19.8331" height="161.73" rx="9.91656" fill="#56C676"/>
<path d="M6.00002 93.5547L55.5469 64.9488C59.7857 62.5015 65.7542 64.0278 68.1462 68.1709L77.5516 84.4616C79.9436 88.6047 85.912 90.131 90.1509 87.6837L191.433 29.2086" stroke="#F0B020" stroke-width="10" stroke-linecap="round"/>
<path d="M130.019 40.3455C130.019 42.9799 129.181 45.1204 127.504 46.7669C125.828 48.3835 123.642 49.3565 120.948 49.6858V53.6375H117.939V49.7307C115.425 49.5511 113.269 48.8476 111.473 47.6201C109.677 46.3927 108.39 44.7312 107.611 42.6356L112.955 39.5372C113.913 41.9321 115.574 43.2943 117.939 43.6236V35.8549C117.909 35.8549 117.894 35.8549 117.894 35.8549L117.805 35.81C116.757 35.4209 115.904 35.0766 115.245 34.7772C114.586 34.4778 113.808 34.0438 112.91 33.475C112.042 32.9062 111.353 32.3224 110.844 31.7237C110.365 31.095 109.931 30.3017 109.542 29.3437C109.183 28.3857 109.003 27.3379 109.003 26.2003C109.003 23.5659 109.856 21.4553 111.563 19.8686C113.299 18.282 115.425 17.3689 117.939 17.1294V13.2227H120.948V17.2192C125.019 17.6982 127.893 19.8088 129.57 23.5509L124.361 26.6044C123.642 24.8082 122.505 23.7155 120.948 23.3264V30.8255C123.732 31.9332 125.603 32.8163 126.561 33.475C128.866 35.1215 130.019 37.4117 130.019 40.3455ZM115.155 26.2452C115.155 26.9038 115.365 27.4876 115.784 27.9965C116.203 28.4755 116.922 28.9695 117.939 29.4784V23.1916C117.041 23.3713 116.353 23.7305 115.874 24.2694C115.395 24.8082 115.155 25.4668 115.155 26.2452ZM120.948 43.5338C122.864 43.1146 123.822 42.0669 123.822 40.3904C123.822 39.642 123.583 39.0133 123.104 38.5044C122.654 37.9954 121.936 37.5164 120.948 37.0674V43.5338Z" fill="white"/>
</svg>
