<svg width="670" height="125" viewBox="0 0 670 125" fill="none" xmlns="http://www.w3.org/2000/svg">
<g filter="url(#filter0_d_1263_67826)">
<path d="M128.5 100.499L128.57 99.5015L128.5 100.499ZM353 54.9991L353.357 55.933L353.395 55.9187L353.431 55.9014L353 54.9991ZM661.949 72.8153C662.123 72.2914 661.84 71.725 661.316 71.5504L652.778 68.7043C652.254 68.5297 651.688 68.8129 651.513 69.3368C651.339 69.8607 651.622 70.4271 652.146 70.6017L659.735 73.1315L657.205 80.721C657.031 81.2449 657.314 81.8113 657.838 81.9859C658.362 82.1606 658.928 81.8774 659.103 81.3534L661.949 72.8153ZM8.5 74.4991C8.20056 75.4532 8.20091 75.4533 8.20152 75.4535C8.2021 75.4537 8.20299 75.4539 8.20414 75.4543C8.20642 75.455 8.20981 75.4561 8.21428 75.4575C8.22323 75.4603 8.23654 75.4645 8.25416 75.47C8.2894 75.481 8.3419 75.4974 8.41129 75.519C8.55006 75.5622 8.75637 75.6262 9.0273 75.7098C9.56914 75.877 10.3694 76.1224 11.4045 76.4359C13.4748 77.0628 16.4845 77.9618 20.2453 79.0508C27.7666 81.2289 38.2934 84.1678 50.3172 87.2118C74.3484 93.2955 104.42 99.8144 128.43 101.497L128.57 99.5015C104.747 97.8324 74.8186 91.3514 50.808 85.2729C38.811 82.2358 28.3065 79.3031 20.8016 77.1298C17.0494 76.0432 14.0474 75.1465 11.9842 74.5217C10.9526 74.2093 10.1556 73.9649 9.617 73.7987C9.34767 73.7156 9.14292 73.652 9.00568 73.6093C8.93706 73.588 8.88531 73.5718 8.85082 73.561C8.83357 73.5556 8.82063 73.5516 8.81205 73.5489C8.80777 73.5476 8.80457 73.5466 8.80246 73.5459C8.80141 73.5456 8.80065 73.5453 8.80013 73.5452C8.79964 73.545 8.79944 73.545 8.5 74.4991ZM128.43 101.497C173.225 104.635 229.487 93.2201 274.475 81.059C296.984 74.9741 316.701 68.694 330.791 63.9351C337.836 61.5555 343.475 59.5559 347.354 58.1508C349.294 57.4482 350.793 56.8943 351.809 56.5157C352.316 56.3265 352.703 56.181 352.963 56.0828C353.093 56.0337 353.191 55.9964 353.257 55.9713C353.29 55.9587 353.315 55.9492 353.332 55.9428C353.34 55.9396 353.346 55.9372 353.351 55.9356C353.353 55.9348 353.354 55.9341 353.356 55.9337C353.357 55.9333 353.357 55.933 353 54.9991C352.643 54.0651 352.642 54.0653 352.641 54.0656C352.64 54.066 352.639 54.0665 352.637 54.0673C352.633 54.0688 352.627 54.0711 352.619 54.0742C352.603 54.0803 352.579 54.0896 352.546 54.1019C352.482 54.1265 352.384 54.1633 352.256 54.2119C351.998 54.3091 351.615 54.4535 351.11 54.6418C350.1 55.0182 348.606 55.57 346.673 56.2704C342.806 57.671 337.181 59.6658 330.151 62.0402C316.09 66.7894 296.414 73.0566 273.953 79.1283C228.999 91.2802 173.011 102.615 128.57 99.5015L128.43 101.497ZM353 54.9991C353.431 55.9014 353.431 55.9012 353.432 55.9007C353.434 55.9002 353.435 55.8995 353.437 55.8985C353.441 55.8964 353.448 55.8933 353.457 55.8892C353.474 55.881 353.5 55.8685 353.535 55.8521C353.604 55.8191 353.708 55.7698 353.845 55.7049C354.12 55.575 354.529 55.3825 355.064 55.1327C356.134 54.633 357.708 53.9039 359.722 52.9874C363.75 51.1543 369.537 48.5717 376.572 45.5753C390.643 39.5817 409.693 31.9367 429.627 25.3232C449.572 18.7063 470.352 13.1385 487.895 11.2748C496.667 10.3428 504.582 10.3425 511.156 11.5757C517.733 12.8093 522.881 15.2594 526.243 19.1527L527.757 17.8455C523.994 13.4888 518.36 10.892 511.525 9.60998C504.688 8.32753 496.56 8.3429 487.683 9.28594C469.929 11.1722 448.991 16.7919 428.998 23.425C408.994 30.0615 389.889 37.7289 375.788 43.7353C368.736 46.739 362.934 49.3282 358.893 51.167C356.873 52.0864 355.293 52.8183 354.218 53.3206C353.68 53.5717 353.269 53.7655 352.991 53.8966C352.852 53.9621 352.747 54.012 352.676 54.0456C352.641 54.0624 352.614 54.0751 352.596 54.0836C352.587 54.0879 352.581 54.0912 352.576 54.0933C352.574 54.0944 352.572 54.0953 352.571 54.0958C352.57 54.0964 352.569 54.0967 353 54.9991ZM526.243 19.1527C533.102 27.0939 533.716 35.4724 531.228 44.0002C528.716 52.6077 523.06 61.2936 517.42 69.6915C511.837 78.0031 506.22 86.0947 504.103 93.3114C503.034 96.9538 502.823 100.476 504.022 103.746C505.224 107.024 507.791 109.904 511.995 112.362L513.005 110.636C509.084 108.344 506.901 105.786 505.9 103.057C504.896 100.319 505.028 97.2631 506.022 93.8743C508.03 87.0285 513.413 79.2451 519.08 70.8066C524.69 62.4546 530.534 53.5154 533.147 44.5604C535.784 35.5258 535.148 26.4042 527.757 17.8455L526.243 19.1527ZM511.995 112.362C516.256 114.853 521.807 116.042 528.175 116.278C534.553 116.514 541.826 115.796 549.59 114.405C565.118 111.625 582.727 106.134 599.282 100.063C615.843 93.9894 631.382 87.3229 642.779 82.1761C648.478 79.6023 653.143 77.4077 656.384 75.8561C658.005 75.0803 659.269 74.4652 660.129 74.0438C660.559 73.8331 660.888 73.6708 661.11 73.561C661.221 73.5062 661.305 73.4644 661.361 73.4363C661.39 73.4223 661.411 73.4116 661.425 73.4045C661.432 73.4009 661.438 73.3982 661.441 73.3964C661.443 73.3954 661.445 73.3947 661.446 73.3943C661.447 73.3938 661.447 73.3935 661 72.4991C660.553 71.6046 660.552 71.6048 660.552 71.6052C660.551 71.6056 660.55 71.6062 660.548 71.6071C660.545 71.6088 660.539 71.6113 660.532 71.6148C660.519 71.6216 660.498 71.632 660.47 71.6458C660.415 71.6733 660.332 71.7144 660.223 71.7687C660.003 71.8773 659.677 72.0383 659.249 72.2478C658.394 72.6667 657.135 73.2792 655.52 74.0522C652.291 75.5983 647.639 77.7865 641.956 80.3533C630.587 85.4877 615.094 92.1337 598.593 98.1852C582.085 104.239 564.6 109.686 549.238 112.437C541.557 113.812 534.435 114.508 528.249 114.279C522.052 114.05 516.869 112.895 513.005 110.636L511.995 112.362Z" fill="#56C676"/>
</g>
<defs>
<filter id="filter0_d_1263_67826" x="0.201416" y="0.609375" width="669.799" height="123.711" filterUnits="userSpaceOnUse" color-interpolation-filters="sRGB">
<feFlood flood-opacity="0" result="BackgroundImageFix"/>
<feColorMatrix in="SourceAlpha" type="matrix" values="0 0 0 0 0 0 0 0 0 0 0 0 0 0 0 0 0 0 127 0" result="hardAlpha"/>
<feOffset/>
<feGaussianBlur stdDeviation="4"/>
<feComposite in2="hardAlpha" operator="out"/>
<feColorMatrix type="matrix" values="0 0 0 0 0.337255 0 0 0 0 0.776471 0 0 0 0 0.462745 0 0 0 1 0"/>
<feBlend mode="normal" in2="BackgroundImageFix" result="effect1_dropShadow_1263_67826"/>
<feBlend mode="normal" in="SourceGraphic" in2="effect1_dropShadow_1263_67826" result="shape"/>
</filter>
</defs>
</svg>
