<svg width="80" height="80" viewBox="0 0 80 80" fill="none" xmlns="http://www.w3.org/2000/svg">
<path d="M63.1449 15.4512L61.1341 2.75162C61.0544 2.25821 60.7825 1.81646 60.3779 1.52295C59.9734 1.22945 59.469 1.10806 58.9752 1.18534C58.4805 1.26346 58.037 1.53465 57.7421 1.93941C57.4471 2.34416 57.3248 2.84941 57.4019 3.34426L58.686 11.4579C51.8761 6.96541 43.6778 5.07191 35.5876 6.12306C27.4974 7.17421 20.0552 11.0999 14.6195 17.1834C9.18377 23.2669 6.11727 31.1024 5.97981 39.2594C5.84234 47.4164 8.64309 55.3508 13.8707 61.614C14.192 61.9979 14.6524 62.2388 15.151 62.2838C15.6497 62.3287 16.1458 62.1741 16.5306 61.8538C16.9145 61.5326 17.1554 61.0721 17.2004 60.5735C17.2454 60.0749 17.0907 59.5788 16.7704 59.194L16.4812 59.4409L16.6999 59.1023C12.0918 53.528 9.63586 46.486 9.778 39.2551C9.92014 32.0242 12.651 25.0841 17.4745 19.6953C22.2981 14.3065 28.8944 10.8264 36.0654 9.8871C43.2364 8.9478 50.5065 10.6116 56.5553 14.5763L48.2935 15.8886C48.0489 15.9275 47.8144 16.0142 47.6033 16.1438C47.3922 16.2733 47.2087 16.4432 47.0632 16.6437C46.7695 17.0485 46.6486 17.5535 46.7272 18.0475C46.8058 18.5415 47.0774 18.984 47.4823 19.2778C47.8872 19.5715 48.3922 19.6924 48.8862 19.6138L61.5857 17.6101C61.7106 17.588 61.8334 17.5549 61.9526 17.5113C62.3005 17.3824 62.6026 17.1536 62.821 16.8536C63.0394 16.5536 63.1644 16.1958 63.1802 15.8251C63.1753 15.6999 63.1635 15.5751 63.1449 15.4512Z" fill="#56C676"/>
<path d="M66.6373 18.7319C66.4845 18.536 66.294 18.3726 66.0771 18.2515C65.8603 18.1303 65.6213 18.0538 65.3744 18.0263C65.1247 17.9921 64.8706 18.0095 64.6279 18.0775C64.3852 18.1454 64.159 18.2625 63.9633 18.4214C63.7629 18.5829 63.5972 18.7834 63.4763 19.0107C63.3555 19.238 63.282 19.4874 63.2602 19.7439C63.2385 20.0004 63.2689 20.2587 63.3497 20.5031C63.4306 20.7475 63.5601 20.973 63.7305 21.1659L63.7799 21.2365C67.9724 26.5458 70.2429 33.1186 70.2214 39.8836C70.2178 45.2852 68.7665 50.587 66.0184 55.2373C63.2704 59.8875 59.3261 63.7162 54.5961 66.3246C49.8661 68.9331 44.5234 70.226 39.1242 70.0688C33.7249 69.9117 28.4665 68.3101 23.8963 65.4309L32.1933 64.1468C32.6809 64.0701 33.1191 63.8057 33.4144 63.4102C33.7097 63.0147 33.8387 62.5195 33.7737 62.0302C33.6938 61.5359 33.4225 61.093 33.0184 60.7972C32.6144 60.5014 32.1102 60.3766 31.6148 60.4498L18.9153 62.4183C18.4274 62.4932 17.9886 62.7574 17.6942 63.1536C17.3997 63.5498 17.2731 64.046 17.3419 64.5348L19.3033 77.2344C19.3724 77.6787 19.5981 78.0837 19.9397 78.3761C20.2813 78.6686 20.7162 78.8292 21.1659 78.8289C21.2646 78.8358 21.3636 78.8358 21.4622 78.8289C21.9574 78.7502 22.4012 78.4788 22.6969 78.074C22.8446 77.8732 22.9506 77.6449 23.0087 77.4026C23.0669 77.1603 23.076 76.9088 23.0356 76.6629L21.7938 68.5634C28.5774 72.8703 36.6673 74.6349 44.6283 73.5441C52.5892 72.4532 59.9063 68.5776 65.2813 62.6047C70.6563 56.6318 73.7416 48.9479 73.9898 40.9165C74.2381 32.885 71.6332 25.0253 66.6373 18.7319Z" fill="#56C676"/>
<path d="M39.9965 30.8951C41.7689 30.8937 43.502 31.418 44.9764 32.4017C46.4509 33.3854 47.6004 34.7843 48.2797 36.4215C48.9589 38.0586 49.1374 39.8604 48.7924 41.599C48.4475 43.3376 47.5947 44.9348 46.3419 46.1886C45.089 47.4424 43.4925 48.2965 41.7542 48.6428C40.0159 48.9891 38.2139 48.8121 36.5762 48.1341C34.9386 47.4562 33.5387 46.3077 32.5539 44.8341C31.569 43.3604 31.0433 41.6278 31.0433 39.8553C31.0452 37.4795 31.9898 35.2015 33.6698 33.5215C35.3497 31.8416 37.6277 30.8969 40.0035 30.8951H39.9965ZM40.0035 27.0147C37.4619 27.0133 34.977 27.7658 32.8631 29.1769C30.7492 30.5881 29.1014 32.5946 28.1281 34.9425C27.1548 37.2904 26.8998 39.8742 27.3953 42.3671C27.8908 44.8599 29.1146 47.1498 30.9118 48.947C32.709 50.7442 34.9989 51.968 37.4917 52.4635C39.9846 52.959 42.5684 52.704 44.9163 51.7307C47.2642 50.7574 49.2707 49.1096 50.6819 46.9957C52.0931 44.8819 52.8456 42.3969 52.8442 39.8553C52.8442 38.1684 52.5118 36.4981 51.8661 34.9398C51.2203 33.3814 50.2739 31.9655 49.0807 30.7731C47.8876 29.5806 46.4713 28.6349 44.9125 27.9901C43.3538 27.3452 41.6833 27.0137 39.9965 27.0147H40.0035Z" fill="#56C676"/>
<path d="M39.9965 30.74C39.3952 30.7382 38.8191 30.498 38.3946 30.0722C37.9701 29.6463 37.7317 29.0695 37.7317 28.4682V21.2718C37.7317 20.6712 37.9703 20.0951 38.3951 19.6704C38.8198 19.2457 39.3958 19.0071 39.9965 19.0071C40.5971 19.0071 41.1732 19.2457 41.5979 19.6704C42.0226 20.0951 42.2612 20.6712 42.2612 21.2718V28.4682C42.2621 28.7662 42.2043 29.0615 42.0909 29.3371C41.9775 29.6127 41.8108 29.8632 41.6004 30.0742C41.39 30.2853 41.14 30.4527 40.8648 30.567C40.5896 30.6812 40.2945 30.74 39.9965 30.74Z" fill="#56C676"/>
<path d="M39.9965 60.6755C39.3958 60.6755 38.8198 60.4369 38.3951 60.0121C37.9703 59.5874 37.7317 59.0114 37.7317 58.4107V51.2425C37.7317 50.6419 37.9703 50.0658 38.3951 49.6411C38.8198 49.2164 39.3958 48.9778 39.9965 48.9778C40.5971 48.9778 41.1732 49.2164 41.5979 49.6411C42.0226 50.0658 42.2612 50.6419 42.2612 51.2425V58.4389C42.2556 59.0353 42.0143 59.6052 41.59 60.0242C41.1657 60.4432 40.5928 60.6774 39.9965 60.6755Z" fill="#56C676"/>
<path d="M58.5589 42.6987H51.3837C50.783 42.6987 50.207 42.4601 49.7823 42.0354C49.3575 41.6106 49.1189 41.0346 49.1189 40.4339C49.1189 39.8333 49.3575 39.2572 49.7823 38.8325C50.207 38.4078 50.783 38.1692 51.3837 38.1692H58.5589C59.1596 38.1692 59.7356 38.4078 60.1603 38.8325C60.5851 39.2572 60.8237 39.8333 60.8237 40.4339C60.8237 41.0346 60.5851 41.6106 60.1603 42.0354C59.7356 42.4601 59.1596 42.6987 58.5589 42.6987Z" fill="#56C676"/>
<path d="M28.6163 42.6987H21.4129C20.8122 42.6987 20.2362 42.4601 19.8114 42.0354C19.3867 41.6106 19.1481 41.0346 19.1481 40.4339C19.1481 39.8333 19.3867 39.2572 19.8114 38.8325C20.2362 38.4078 20.8122 38.1692 21.4129 38.1692H28.6163C29.217 38.1692 29.793 38.4078 30.2177 38.8325C30.6425 39.2572 30.8811 39.8333 30.8811 40.4339C30.8811 41.0346 30.6425 41.6106 30.2177 42.0354C29.793 42.4601 29.217 42.6987 28.6163 42.6987Z" fill="#56C676"/>
<path d="M29.5546 33.435L24.4678 28.3411C24.043 27.9163 23.8044 27.3402 23.8044 26.7395C23.8044 26.1388 24.043 25.5628 24.4678 25.138C24.8925 24.7132 25.4686 24.4746 26.0693 24.4746C26.67 24.4746 27.2461 24.7132 27.6709 25.138L32.7648 30.2319C32.9751 30.4427 33.1419 30.6928 33.2555 30.9681C33.3691 31.2433 33.4275 31.5382 33.4271 31.836C33.4268 32.1337 33.3678 32.4285 33.2536 32.7035C33.1393 32.9785 32.972 33.2282 32.7613 33.4385C32.5505 33.6489 32.3003 33.8156 32.0251 33.9293C31.7499 34.0429 31.455 34.1012 31.1572 34.1009C30.8595 34.1006 30.5647 34.0416 30.2897 33.9273C30.0147 33.8131 29.765 33.6458 29.5546 33.435Z" fill="#56C676"/>
<path d="M29.5546 46.2899L24.4678 51.3838C24.043 51.8086 23.8044 52.3847 23.8044 52.9854C23.8044 53.5861 24.043 54.1622 24.4678 54.5869C24.8925 55.0117 25.4686 55.2503 26.0693 55.2503C26.67 55.2503 27.2461 55.0117 27.6709 54.5869L32.7648 49.493C32.9751 49.2822 33.1419 49.0321 33.2555 48.7569C33.3691 48.4816 33.4275 48.1867 33.4271 47.889C33.4268 47.5912 33.3678 47.2964 33.2536 47.0214C33.1393 46.7465 32.972 46.4967 32.7613 46.2864C32.5505 46.0761 32.3003 45.9093 32.0251 45.7957C31.7499 45.682 31.455 45.6237 31.1572 45.624C30.8595 45.6244 30.5647 45.6833 30.2897 45.7976C30.0147 45.9118 29.765 46.0791 29.5546 46.2899Z" fill="#56C676"/>
<path d="M49.9939 46.2898L55.0807 51.3838C55.5055 51.8085 55.7441 52.3846 55.7441 52.9853C55.7441 53.586 55.5055 54.1621 55.0807 54.5869C54.656 55.0116 54.0799 55.2503 53.4792 55.2503C52.8785 55.2503 52.3024 55.0116 51.8776 54.5869L46.7908 49.493C46.366 49.0682 46.1274 48.4921 46.1274 47.8914C46.1274 47.2907 46.366 46.7146 46.7908 46.2898C47.2155 45.8651 47.7916 45.6265 48.3923 45.6265C48.993 45.6265 49.5691 45.8651 49.9939 46.2898Z" fill="#56C676"/>
<path d="M49.9939 33.435L55.0807 28.3411C55.5055 27.9163 55.7441 27.3402 55.7441 26.7395C55.7441 26.1388 55.5055 25.5628 55.0807 25.138C54.656 24.7132 54.0799 24.4746 53.4792 24.4746C52.8785 24.4746 52.3024 24.7132 51.8776 25.138L46.7908 30.2319C46.366 30.6567 46.1274 31.2328 46.1274 31.8335C46.1274 32.4342 46.366 33.0103 46.7908 33.435C47.2155 33.8598 47.7916 34.0984 48.3923 34.0984C48.993 34.0984 49.5691 33.8598 49.9939 33.435Z" fill="#56C676"/>
</svg>
