<svg width="80" height="80" viewBox="0 0 80 80" fill="none" xmlns="http://www.w3.org/2000/svg">
<g clip-path="url(#clip0_1102_23639)">
<path d="M40.0136 58.2671C41.7265 58.2671 43.4009 58.775 44.8251 59.7266C46.2492 60.6782 47.3593 62.0308 48.0147 63.6133C48.6702 65.1957 48.8417 66.9371 48.5076 68.617C48.1734 70.2969 47.3486 71.8401 46.1374 73.0512C44.9262 74.2624 43.3831 75.0872 41.7032 75.4214C40.0232 75.7555 38.2819 75.584 36.6995 74.9286C35.117 74.2731 33.7644 73.1631 32.8128 71.7389C31.8612 70.3147 31.3533 68.6403 31.3533 66.9274C31.357 64.6317 32.2707 62.4311 33.894 60.8078C35.5173 59.1845 37.7179 58.2709 40.0136 58.2671ZM40.0136 54.8625C37.6288 54.8625 35.2976 55.5697 33.3147 56.8947C31.3318 58.2196 29.7863 60.1028 28.8737 62.306C27.961 64.5093 27.7223 66.9337 28.1875 69.2727C28.6528 71.6117 29.8012 73.7602 31.4875 75.4465C33.1738 77.1328 35.3223 78.2812 37.6613 78.7465C40.0002 79.2117 42.4247 78.9729 44.628 78.0603C46.8312 77.1477 48.7144 75.6022 50.0393 73.6193C51.3643 71.6364 52.0714 69.3052 52.0714 66.9204C52.0714 65.3369 51.7596 63.769 51.1536 62.306C50.5476 60.8431 49.6595 59.5139 48.5398 58.3942C47.4201 57.2745 46.0909 56.3864 44.628 55.7804C43.165 55.1744 41.5971 54.8625 40.0136 54.8625Z" fill="#56C676"/>
<path d="M21.1609 47.8123C20.9159 47.8114 20.674 47.757 20.4523 47.6529C20.2305 47.5487 20.0342 47.3974 19.8771 47.2094C19.5909 46.8607 19.4542 46.413 19.4968 45.964C19.5393 45.5149 19.7576 45.1008 20.104 44.812C23.2338 42.236 26.0863 39.3407 28.6154 36.173C31.1192 33.0096 34.5805 28.6617 36.6303 22.2781C37.6811 18.9894 38.2497 15.5658 38.3184 12.1141C38.3277 11.6688 38.5111 11.2449 38.8294 10.9332C39.1476 10.6216 39.5753 10.4472 40.0207 10.4473H40.0633C40.5135 10.4584 40.941 10.6476 41.2521 10.9733C41.5632 11.299 41.7325 11.7347 41.723 12.185C41.6435 15.9567 41.0224 19.6974 39.8789 23.2924C37.6091 30.3072 33.9422 34.9246 31.2256 38.3008C28.5436 41.6463 25.5251 44.7075 22.2177 47.4364C21.918 47.6775 21.5455 47.81 21.1609 47.8123Z" fill="#56C676"/>
<path d="M41.7229 12.2914C41.6508 15.874 41.0779 19.4288 40.0206 22.8526C38.9879 19.4863 38.4153 15.9957 38.3184 12.4758C38.3184 12.3765 38.3184 12.2843 38.3184 12.185V12.1425C38.3201 11.6995 38.4944 11.2746 38.8043 10.9581C39.1142 10.6416 39.5352 10.4583 39.9781 10.4473H40.0206C40.4648 10.4471 40.8915 10.6206 41.2095 10.9307C41.5276 11.2408 41.7118 11.6629 41.7229 12.107V12.2914Z" fill="#56C676"/>
<path d="M60.1857 47.2094C60.0433 47.3818 59.8682 47.5244 59.6706 47.6291C59.473 47.7338 59.2567 47.7985 59.0341 47.8196C58.8114 47.8407 58.5868 47.8177 58.3731 47.7519C58.1593 47.6862 57.9607 47.5789 57.7884 47.4364C54.481 44.7075 51.4625 41.6463 48.7805 38.3008C45.9407 34.9787 43.5555 31.2936 41.6877 27.3424C41.3543 26.6331 41.0422 25.8671 40.7514 25.0798C40.9074 24.6471 41.0493 24.2074 41.1983 23.7605C41.3756 23.2073 41.5387 22.654 41.6877 22.0937C41.9926 20.9872 42.248 19.8665 42.4466 18.7317C42.6879 19.9307 42.9981 21.1148 43.3757 22.2781C45.461 28.6616 48.9152 33.0096 51.4474 36.173C53.9765 39.3407 56.829 42.236 59.9588 44.812C60.3053 45.1008 60.5236 45.5149 60.5661 45.964C60.6086 46.413 60.4719 46.8607 60.1857 47.2094Z" fill="#56C676"/>
<path d="M50.4402 10.575L41.3542 1.49615C41.0084 1.17713 40.5551 1 40.0846 1C39.6141 1 39.1609 1.17713 38.815 1.49615L29.7291 10.575C29.5704 10.7331 29.4445 10.921 29.3586 11.128C29.2727 11.3349 29.2284 11.5567 29.2284 11.7808C29.2284 12.0048 29.2727 12.2266 29.3586 12.4335C29.4445 12.6405 29.5704 12.8284 29.7291 12.9865C30.0482 13.3049 30.4806 13.4837 30.9313 13.4837C31.3821 13.4837 31.8145 13.3049 32.1336 12.9865L38.3185 6.80159V12.7737C38.2575 14.8025 38.0202 16.8221 37.6092 18.8097C37.3576 19.982 37.0427 21.1399 36.6659 22.2781C34.6302 28.6617 31.2257 32.9812 28.6723 36.1304C26.1584 39.2758 23.325 42.152 20.2176 44.7127C19.9481 44.9339 19.7536 45.2331 19.6609 45.5692C19.5683 45.9053 19.582 46.2619 19.7001 46.5899C19.8183 46.9179 20.0351 47.2013 20.3208 47.4012C20.6065 47.601 20.9471 47.7075 21.2957 47.7059C21.6883 47.7053 22.0688 47.5701 22.3738 47.3229C25.6624 44.6105 28.6621 41.5657 31.325 38.237C34.1257 34.9473 36.4774 31.3005 38.3185 27.3921C38.659 26.6828 38.9781 25.8813 39.269 25.0798C39.4888 24.5124 39.6945 23.9308 39.886 23.3279C39.9357 23.1718 39.9782 23.0158 40.0208 22.8527C41.078 19.4289 41.651 15.874 41.7231 12.2914V6.67391L48.0357 12.9865C48.3548 13.3049 48.7872 13.4837 49.2379 13.4837C49.6887 13.4837 50.121 13.3049 50.4402 12.9865C50.5989 12.8284 50.7248 12.6405 50.8107 12.4335C50.8966 12.2266 50.9408 12.0048 50.9408 11.7808C50.9408 11.5567 50.8966 11.3349 50.8107 11.128C50.7248 10.921 50.5989 10.7331 50.4402 10.575Z" fill="#56C676"/>
<path d="M41.723 22.0938V27.3424C41.3896 26.6332 41.0776 25.8671 40.7867 25.0798C40.9428 24.6472 41.0846 24.2074 41.2336 23.7606C41.4109 23.2073 41.574 22.6541 41.723 22.0938Z" fill="#56C676"/>
<path d="M40.0206 29.0232C40.5281 30.2332 41.0962 31.4168 41.7229 32.5696V55.7277C41.7229 56.1792 41.5436 56.6121 41.2243 56.9314C40.9051 57.2506 40.4721 57.43 40.0206 57.43C39.5692 57.43 39.1362 57.2506 38.8169 56.9314C38.4977 56.6121 38.3184 56.1792 38.3184 55.7277V32.598C38.9142 31.4915 39.4887 30.2999 40.0206 29.0232Z" fill="#56C676"/>
<path d="M12.075 43.649C13.9818 43.6463 15.8362 44.273 17.3504 45.4318C18.8646 46.5907 19.9541 48.2168 20.4498 50.0581C20.9454 51.8993 20.8196 53.8526 20.0917 55.615C19.3639 57.3774 18.0747 58.8504 16.4243 59.8053C14.7739 60.7602 12.8544 61.1438 10.9638 60.8965C9.0731 60.6491 7.31691 59.7847 5.96766 58.4374C4.61842 57.09 3.75155 55.3351 3.50155 53.4447C3.25155 51.5544 3.6324 49.6344 4.585 47.9827C5.3427 46.666 6.43394 45.5722 7.74885 44.8114C9.06375 44.0506 10.5559 43.6496 12.075 43.649ZM12.075 40.2444C9.14912 40.2402 6.32151 41.3001 4.11922 43.2265C1.91692 45.1528 0.490209 47.8142 0.10499 50.7147C-0.280229 53.6151 0.402329 56.5567 2.02545 58.9911C3.64857 61.4256 6.1015 63.1868 8.92707 63.9465C11.7526 64.7062 14.758 64.4125 17.3831 63.1203C20.0082 61.8281 22.0739 59.6254 23.1952 56.9229C24.3164 54.2203 24.4167 51.2023 23.4774 48.4312C22.5381 45.6602 20.6232 43.3252 18.0897 41.8616C16.2611 40.8051 14.187 40.2474 12.075 40.2444Z" fill="#56C676"/>
<path d="M67.9381 43.6489C70.0415 43.6446 72.0747 44.4054 73.6586 45.7893C75.2426 47.1732 76.2692 49.0859 76.5472 51.1709C76.8252 53.2558 76.3355 55.3707 75.1695 57.1213C74.0035 58.8718 72.2406 60.1387 70.2096 60.6856C68.1786 61.2326 66.018 61.0223 64.1305 60.094C62.2431 59.1657 60.7576 57.5827 59.951 55.6401C59.1444 53.6976 59.0717 51.5279 59.7465 49.5357C60.4213 47.5435 61.7975 45.8647 63.6186 44.8122C64.9324 44.0544 66.4215 43.6534 67.9381 43.6489ZM67.9381 40.2444C65.2845 40.2462 62.7056 41.1234 60.6012 42.7399C58.4967 44.3564 56.9844 46.622 56.2984 49.1855C55.6125 51.7489 55.7914 54.4671 56.8073 56.9185C57.8233 59.3699 59.6195 61.4178 61.9177 62.7446C64.2158 64.0714 66.8874 64.603 69.5184 64.2571C72.1494 63.9112 74.5928 62.707 76.4698 60.8312C78.3468 58.9554 79.5526 56.5129 79.9003 53.8821C80.248 51.2514 79.7182 48.5794 78.3929 46.2804C77.3345 44.4442 75.8108 42.9195 73.9753 41.8598C72.1399 40.8001 70.0575 40.2429 67.9381 40.2444Z" fill="#56C676"/>
</g>
<defs>
<clipPath id="clip0_1102_23639">
<rect width="80" height="80" fill="white"/>
</clipPath>
</defs>
</svg>
