<svg width="80" height="80" viewBox="0 0 80 80" fill="none" xmlns="http://www.w3.org/2000/svg">
<path d="M76.8392 20.5944C76.8408 20.8747 76.7589 21.1491 76.604 21.3826C76.4491 21.6162 76.2281 21.7983 75.9692 21.9058C75.7104 22.0133 75.4254 22.0412 75.1506 21.9861C74.8758 21.931 74.6236 21.7953 74.4263 21.5963L67.2793 14.4492L66.6796 13.8425V40.2152C66.6796 40.2152 66.6796 40.2152 66.6796 40.2575V40.3351C66.6758 40.3679 66.6758 40.4011 66.6796 40.4339C66.557 48.858 63.093 56.8883 57.0496 62.7583C51.0063 68.6284 42.8786 71.8573 34.4545 71.7347C26.0304 71.6122 18.0001 68.1482 12.1301 62.1048C6.26002 56.0614 3.03112 47.9337 3.15368 39.5097C3.15368 39.0419 3.33951 38.5932 3.67029 38.2624C4.00107 37.9317 4.44971 37.7458 4.9175 37.7458C5.3853 37.7458 5.83394 37.9317 6.16472 38.2624C6.4955 38.5932 6.68133 39.0419 6.68133 39.5097C6.68133 46.9944 9.65462 54.1725 14.9471 59.465C20.2396 64.7575 27.4178 67.7308 34.9025 67.7308C42.3872 67.7308 49.5654 64.7575 54.8579 59.465C60.1504 54.1725 63.1237 46.9944 63.1237 39.5097V13.8143L62.524 14.421L55.377 21.5963C55.2459 21.7275 55.0903 21.8315 54.919 21.9025C54.7477 21.9735 54.5641 22.0101 54.3787 22.0101C54.1932 22.0101 54.0096 21.9735 53.8383 21.9025C53.667 21.8315 53.5114 21.7275 53.3803 21.5963C53.2491 21.4652 53.1451 21.3096 53.074 21.1383C53.003 20.967 52.9665 20.7834 52.9665 20.5979C52.9665 20.4125 53.003 20.2289 53.074 20.0576C53.1451 19.8863 53.2491 19.7307 53.3803 19.5996L63.8433 9.17188C64.1067 8.90689 64.4645 8.75719 64.8381 8.75562H64.9651C65.3388 8.75719 65.6965 8.90689 65.9599 9.17188L76.4229 19.6349C76.6795 19.8896 76.8285 20.233 76.8392 20.5944Z" fill="#56C676"/>
<path d="M35.5728 23.1626C32.195 23.1626 28.8931 24.1645 26.0849 26.0415C23.2767 27.9186 21.0883 30.5864 19.7967 33.7074C18.505 36.8285 18.1681 40.2626 18.8286 43.5751C19.4892 46.8877 21.1174 49.9299 23.5073 52.3169C25.8972 54.7039 28.9415 56.3283 32.2549 56.9847C35.5683 57.6411 39.0019 57.3 42.1214 56.0045C45.2408 54.709 47.9059 52.5173 49.7795 49.7067C51.653 46.8962 52.6508 43.593 52.6466 40.2152C52.6373 35.6918 50.8348 31.3566 47.6342 28.16C44.4337 24.9635 40.0963 23.1663 35.5728 23.1626ZM35.5728 53.4298C32.9643 53.4298 30.4143 52.6566 28.2452 51.2078C26.076 49.759 24.3849 47.6997 23.3857 45.2902C22.3865 42.8806 22.124 40.229 22.6314 37.6703C23.1388 35.1116 24.3932 32.7607 26.2362 30.9147C28.0792 29.0688 30.4281 27.8106 32.986 27.2991C35.5438 26.7876 38.1959 27.0459 40.6071 28.0412C43.0182 29.0366 45.0802 30.7243 46.5324 32.8912C47.9847 35.058 48.762 37.6067 48.7662 40.2152C48.7681 41.9493 48.4282 43.6668 47.7661 45.2695C47.104 46.8723 46.1326 48.3288 44.9074 49.556C43.6822 50.7832 42.2272 51.7569 40.6255 52.4216C39.0238 53.0863 37.3069 53.4289 35.5728 53.4298Z" fill="#56C676"/>
<path d="M39.8694 43.4676C39.8894 43.9896 39.8007 44.51 39.6088 44.9958C39.4168 45.4817 39.126 45.9223 38.7547 46.2897C37.9607 47.0465 36.9335 47.5117 35.8409 47.6091V49.4293H34.5145V47.6373C33.4791 47.6018 32.4734 47.282 31.6077 46.713C30.8078 46.1754 30.1999 45.397 29.8721 44.4906L31.897 43.3194C32.0858 43.8751 32.4354 44.3621 32.9014 44.7188C33.3674 45.0756 33.9288 45.2859 34.5145 45.3231V41.09C33.9007 40.8571 33.3997 40.6455 33.0188 40.462C32.5903 40.2483 32.1839 39.9931 31.8053 39.7001C31.3889 39.3863 31.0568 38.9742 30.8387 38.5007C30.6205 37.9807 30.5147 37.4205 30.5282 36.8568C30.5084 36.3375 30.6002 35.8201 30.7973 35.3393C30.9945 34.8586 31.2925 34.4257 31.6712 34.0699C32.4495 33.3588 33.4424 32.9269 34.4933 32.8423V31.0432H35.8409V32.8635C36.6736 32.9365 37.4699 33.2388 38.1412 33.737C38.8125 34.2352 39.3326 34.9097 39.6437 35.6856L37.6611 36.8356C37.5243 36.4313 37.2845 36.0697 36.9653 35.7864C36.6461 35.503 36.2585 35.3078 35.8409 35.2199V39.2697C36.2783 39.432 36.6099 39.559 36.8357 39.6577C37.0614 39.7565 37.3578 39.8976 37.7317 40.081C38.0476 40.2344 38.3417 40.429 38.6066 40.6596C38.8344 40.8818 39.0488 41.1174 39.2486 41.3651C39.4769 41.6432 39.6408 41.9685 39.7283 42.3176C39.8242 42.6933 39.8716 43.0798 39.8694 43.4676ZM32.8777 36.8427C32.8624 37.2252 32.9994 37.5981 33.2586 37.8798C33.6202 38.2315 34.0467 38.5095 34.5145 38.6982V35.1706C34.0637 35.2274 33.6432 35.4278 33.3151 35.742C33.0315 36.0379 32.8745 36.4328 32.8777 36.8427ZM35.8409 45.309C36.3176 45.2372 36.7569 45.0088 37.0897 44.6599C37.3747 44.34 37.5284 43.9242 37.52 43.4958C37.5295 43.2953 37.498 43.095 37.4277 42.907C37.3574 42.719 37.2496 42.5473 37.1108 42.4022C36.7394 42.058 36.3093 41.7832 35.8409 41.5909V45.309Z" fill="#56C676"/>
</svg>
