<svg width="24" height="24" viewBox="0 0 24 24" fill="none" xmlns="http://www.w3.org/2000/svg">
<path d="M17 13.0004L13 22.0004C12.2044 22.0004 11.4413 21.6843 10.8787 21.1217C10.3161 20.5591 10 19.796 10 19.0004V15.0004H4.34C4.05009 15.0036 3.76294 14.9439 3.49843 14.8251C3.23392 14.7064 2.99839 14.5316 2.80814 14.3128C2.6179 14.0941 2.47749 13.8365 2.39666 13.5581C2.31583 13.2797 2.29649 12.987 2.34 12.7004L3.72 3.70036C3.79232 3.22346 4.03457 2.78875 4.40209 2.47636C4.76962 2.16396 5.23767 1.99491 5.72 2.00036H17M17 13.0004V2.00036M17 13.0004H19.67C20.236 13.0104 20.7859 12.8122 21.2154 12.4435C21.6449 12.0749 21.9241 11.5613 22 11.0004V4.00036C21.9241 3.43942 21.6449 2.92586 21.2154 2.55718C20.7859 2.1885 20.236 1.99035 19.67 2.00036H17" stroke="#FF3D00" stroke-linecap="round" stroke-linejoin="round"/>
</svg>
