<svg width="38" height="38" viewBox="0 0 38 38" fill="none" xmlns="http://www.w3.org/2000/svg">
<path d="M34.6389 18.9999C34.6389 10.4089 27.6744 3.44434 19.0834 3.44434C10.4923 3.44434 3.52783 10.4087 3.52783 18.9999C3.52783 26.7641 9.2163 33.1996 16.6528 34.3665V23.4964H12.7032V18.9999H16.6528V15.5728C16.6528 11.6742 18.9752 9.52073 22.5283 9.52073C24.2303 9.52073 26.0105 9.82454 26.0105 9.82454V13.6527H24.049C22.1165 13.6527 21.5139 14.8518 21.5139 16.082V18.9999H25.8282L25.1385 23.4964H21.5139V34.3665C28.9505 33.1996 34.6389 26.7642 34.6389 18.9999Z" fill="#1877F2"/>
<path d="M25.1385 23.4964L25.8281 18.9999H21.5139V16.082C21.5139 14.8517 22.1165 13.6527 24.049 13.6527H26.0104V9.82457C26.0104 9.82457 24.2303 9.52075 22.5283 9.52075C18.9752 9.52075 16.6528 11.6742 16.6528 15.5728V18.9999H12.7031V23.4964H16.6528V34.3665C17.4568 34.4925 18.2695 34.5557 19.0833 34.5555C19.8972 34.5557 20.7098 34.4925 21.5139 34.3665V23.4964H25.1385Z" fill="white"/>
</svg>
