<svg width="38" height="38" viewBox="0 0 38 38" fill="none" xmlns="http://www.w3.org/2000/svg">
<path d="M34.3364 15.9533H33.0834V15.8888H19.0834V22.111H27.8746C26.5921 25.7331 23.1457 28.3332 19.0834 28.3332C13.9291 28.3332 9.75005 24.1542 9.75005 18.9999C9.75005 13.8456 13.9291 9.66656 19.0834 9.66656C21.4626 9.66656 23.6272 10.5641 25.2753 12.0302L29.6752 7.63034C26.8969 5.04111 23.1807 3.44434 19.0834 3.44434C10.4928 3.44434 3.52783 10.4093 3.52783 18.9999C3.52783 27.5904 10.4928 34.5554 19.0834 34.5554C27.6739 34.5554 34.6389 27.5904 34.6389 18.9999C34.6389 17.9569 34.5316 16.9388 34.3364 15.9533Z" fill="#FFC107"/>
<path d="M5.32129 11.7596L10.4321 15.5077C11.815 12.0839 15.1641 9.66656 19.0833 9.66656C21.4625 9.66656 23.6271 10.5641 25.2752 12.0302L29.6751 7.63034C26.8968 5.04111 23.1806 3.44434 19.0833 3.44434C13.1084 3.44434 7.92684 6.81756 5.32129 11.7596Z" fill="#FF3D00"/>
<path d="M19.0834 34.5555C23.1014 34.5555 26.7523 33.0179 29.5127 30.5173L24.6982 26.4433C23.084 27.6709 21.1115 28.3349 19.0834 28.3333C15.0374 28.3333 11.602 25.7534 10.3078 22.1531L5.23511 26.0614C7.80955 31.0991 13.0378 34.5555 19.0834 34.5555Z" fill="#4CAF50"/>
<path d="M34.3365 15.9532H33.0835V15.8887H19.0835V22.1109H27.8747C27.2612 23.8348 26.1561 25.3411 24.6959 26.4439L24.6983 26.4423L29.5127 30.5163C29.1721 30.8259 34.6391 26.7776 34.6391 18.9998C34.6391 17.9568 34.5317 16.9387 34.3365 15.9532Z" fill="#1976D2"/>
</svg>
