<svg width="248" height="64" viewBox="0 0 248 64" fill="none" xmlns="http://www.w3.org/2000/svg">
<g clip-path="url(#clip0_1402_33841)">
<path d="M46.1636 34.0269C64.331 27.4145 78.0981 19.4153 76.9134 16.1602C75.7286 12.9051 60.0406 15.6267 41.8732 22.2391C23.7057 28.8515 9.93859 36.8507 11.1234 40.1058C12.3081 43.3609 27.9962 40.6393 46.1636 34.0269Z" fill="#3B4653"/>
<path d="M58.8148 21.6892H33.3468C28.6958 21.6892 24.9254 25.4596 24.9254 30.1106V55.5786C24.9254 60.2296 28.6958 64 33.3468 64H58.8148C63.4658 64 67.2362 60.2296 67.2362 55.5786V30.1106C67.2362 25.4596 63.4658 21.6892 58.8148 21.6892Z" fill="url(#paint0_linear_1402_33841)"/>
<path d="M57.4381 26.6689H57.4311C55.3713 26.6689 53.7015 28.3387 53.7015 30.3985V55.2905C53.7015 57.3503 55.3713 59.0201 57.4311 59.0201H57.4381C59.4979 59.0201 61.1677 57.3503 61.1677 55.2905V30.3985C61.1677 28.3387 59.4979 26.6689 57.4381 26.6689Z" fill="white"/>
<path d="M46.0807 36.6216H46.0737C44.0139 36.6216 42.3441 38.2914 42.3441 40.3512V55.2906C42.3441 57.3504 44.0139 59.0202 46.0737 59.0202H46.0807C48.1405 59.0202 49.8103 57.3504 49.8103 55.2906V40.3512C49.8103 38.2914 48.1405 36.6216 46.0807 36.6216Z" fill="white"/>
<path d="M34.7234 46.5742H34.7164C32.6566 46.5742 30.9868 48.244 30.9868 50.3038V55.2906C30.9868 57.3504 32.6566 59.0202 34.7164 59.0202H34.7234C36.7832 59.0202 38.453 57.3504 38.453 55.2906V50.3038C38.453 48.244 36.7832 46.5742 34.7234 46.5742Z" fill="white"/>
<path d="M34.7164 39.1081C36.7762 39.1081 38.446 37.4383 38.446 35.3785C38.446 33.3187 36.7762 31.6489 34.7164 31.6489C32.6566 31.6489 30.9868 33.3187 30.9868 35.3785C30.9868 37.4383 32.6566 39.1081 34.7164 39.1081Z" fill="white"/>
<path d="M42.1379 4.28841C40.9067 0.905714 37.1664 -0.838418 33.7837 0.392784C30.401 1.62398 28.6569 5.36429 29.8881 8.74698L34.7599 22.132C35.9911 25.5147 39.7314 27.2589 43.1141 26.0277C46.4968 24.7965 48.2409 21.0562 47.0097 17.6735L42.1379 4.28841Z" fill="#3B4653"/>
<path d="M76.9079 16.1544C53.8838 20.7217 31.6989 28.802 11.1309 40.1123C8.55082 37.3684 5.97546 34.6244 3.40479 31.8805C26.369 18.6788 51.4469 9.5559 77.5259 4.9165C77.3246 8.66248 77.1186 12.4085 76.9079 16.1544Z" fill="#3B4653"/>
<path d="M77.5259 4.91661C77.3199 8.66259 77.1139 12.4086 76.9078 16.1545C53.8838 20.7218 31.6989 28.8021 11.1308 40.1124C8.55078 37.3685 5.97542 34.6245 3.40474 31.8806C26.3703 18.6819 51.4478 9.55916 77.5259 4.91661ZM78.4671 3.84901L77.3714 4.04567C51.1942 8.70696 26.0218 17.8653 2.96927 31.115L2 31.6699L2.76558 32.4846L6.41089 36.3828L10.4706 40.7375L10.9412 41.2362L11.5382 40.9061C32.0317 29.6295 54.139 21.575 77.0834 17.0255L77.7858 16.892V16.1897L78.0948 10.5707L78.3968 4.95173L78.4601 3.83496L78.4671 3.84901Z" fill="white"/>
<path d="M9.95315 35.8391C9.43563 35.821 8.92025 35.7634 8.41157 35.6667C7.60276 35.5357 6.7663 35.4047 6.3377 35.6667L5.83997 34.8944C6.53126 34.4393 7.56819 34.5979 8.54983 34.7565C9.3932 34.8944 10.2642 35.0323 10.755 34.7565C11.2459 34.4806 11.4463 33.7014 11.709 32.9291C12.0339 31.95 12.4003 30.9363 13.1677 30.4812C13.935 30.0261 14.9235 30.2674 15.9328 30.4812C16.7624 30.6605 17.6265 30.8398 18.1173 30.5777C18.6081 30.3157 18.8708 29.5503 19.1681 28.7918C19.5414 27.8264 19.9285 26.8403 20.7373 26.4266C21.5461 26.0128 22.5139 26.2955 23.5025 26.5576C24.3182 26.7713 25.1685 26.992 25.6662 26.7576C26.1639 26.5231 26.475 25.7577 26.8137 25.013C27.2285 24.0752 27.664 23.1098 28.4867 22.7374C29.3093 22.365 30.2702 22.696 31.2518 22.9994C32.0607 23.2546 32.8902 23.5235 33.3948 23.3097C33.8995 23.096 34.259 22.3513 34.6323 21.6203C35.0954 20.7032 35.5724 19.7585 36.4158 19.4275C37.2592 19.0965 38.2062 19.4758 39.181 19.8275C39.9759 20.124 40.7917 20.4274 41.3032 20.2412C41.8148 20.055 42.2365 19.3034 42.6443 18.5794C43.1351 17.7036 43.6398 16.8072 44.4624 16.5107C45.2851 16.2142 46.2805 16.6486 47.2276 17.0554C47.9742 17.3864 48.7484 17.745 49.2393 17.5726C49.7301 17.4002 50.214 16.6831 50.6218 15.9728C51.1541 15.1315 51.7002 14.2558 52.5367 14.0213C53.3732 13.7869 54.3479 14.2489 55.2604 14.7109C55.9932 15.0695 56.7536 15.4418 57.2375 15.3177C57.7214 15.1936 58.2606 14.4765 58.7445 13.7869C59.3114 12.9732 59.899 12.1251 60.7423 11.932C61.5857 11.7389 62.5466 12.2492 63.4384 12.7457C64.1297 13.1456 64.8832 13.5524 65.374 13.4352C65.8648 13.318 66.4455 12.6353 66.964 11.9733C67.5723 11.1872 68.1945 10.3805 69.0378 10.2288C69.8812 10.0771 70.8352 10.6287 71.7131 11.1735C72.4044 11.601 73.0957 12.0423 73.5865 11.9665C74.0773 11.8906 74.7133 11.2148 75.2595 10.5873C75.8056 9.95983 76.5591 9.07029 77.3955 8.95996L77.52 9.87018C77.0292 9.93224 76.483 10.5597 75.9577 11.1872C75.2664 11.9596 74.6166 12.7526 73.7317 12.8905C72.8468 13.0284 72.0519 12.4836 71.2223 11.9733C70.531 11.5182 69.7568 11.0562 69.2037 11.1459C68.6507 11.2355 68.1875 11.9044 67.6898 12.525C67.0676 13.3249 66.4317 14.1524 65.5606 14.3248C64.6896 14.4971 63.8462 14.0007 62.9959 13.5249C62.1457 13.0491 61.4889 12.6836 60.9221 12.8353C60.3552 12.987 59.9473 13.6421 59.4773 14.3179C58.8966 15.1384 58.3021 15.9935 57.4449 16.2142C56.5877 16.4348 55.7166 15.9728 54.8318 15.5246C54.0714 15.1453 53.2902 14.7523 52.7579 14.904C52.2256 15.0557 51.8108 15.7659 51.3753 16.4624C50.8361 17.3106 50.29 18.1863 49.4466 18.4483C48.6033 18.7104 47.6977 18.2897 46.799 17.8967C46.0247 17.5588 45.2228 17.2071 44.7251 17.3795C44.2274 17.5519 43.8195 18.2828 43.4186 19.0069C42.9278 19.8757 42.4162 20.7791 41.5936 21.0756C40.7709 21.3721 39.7824 21.0066 38.8284 20.6549C38.0472 20.3653 37.2384 20.0688 36.7545 20.255C36.2706 20.4412 35.842 21.2411 35.4549 22.0065C35.0125 22.8822 34.5493 23.7924 33.7612 24.1234C32.9732 24.4544 31.9431 24.1234 30.9961 23.8476C30.2011 23.5925 29.3784 23.3304 28.9222 23.5442C28.4659 23.758 28.0512 24.5785 27.7055 25.3577C27.3046 26.2542 26.8898 27.1851 26.1155 27.5574C25.3413 27.9298 24.2974 27.6678 23.3504 27.4126C22.5485 27.1989 21.7189 26.9782 21.2765 27.2127C20.8341 27.4471 20.3156 28.3091 19.9769 29.109C19.6174 30.0192 19.251 30.9708 18.5044 31.3707C17.7578 31.7707 16.6863 31.5776 15.6909 31.3707C14.889 31.1983 14.0525 31.019 13.617 31.2742C13.1815 31.5293 12.8427 32.3982 12.5731 33.2188C12.3035 34.0393 11.9441 35.1013 11.1906 35.5357C10.8129 35.7459 10.3855 35.8507 9.95315 35.8391Z" fill="white"/>
<path d="M105.494 55.0587C103.582 56.9801 101.142 58.289 98.4838 58.8187C95.8256 59.3484 93.0698 59.075 90.5675 58.0333C88.0652 56.9915 85.9296 55.2286 84.4326 52.969C82.9356 50.7094 82.145 48.0554 82.1615 45.3449C82.1666 42.6441 82.9701 40.005 84.471 37.7596C85.972 35.5142 88.1033 33.7626 90.597 32.7252C93.0906 31.6878 95.8354 31.4108 98.4861 31.9291C101.137 32.4474 103.575 33.7379 105.494 35.6382C106.784 36.8989 107.802 38.4107 108.485 40.0803C109.167 41.7498 109.5 43.5416 109.463 45.3449C109.5 47.1493 109.167 48.9422 108.485 50.613C107.802 52.2837 106.784 53.7967 105.494 55.0587ZM89.7541 51.5469C91.3834 53.102 93.5492 53.9697 95.8015 53.9697C98.0539 53.9697 100.22 53.102 101.849 51.5469C102.656 50.7382 103.289 49.7724 103.709 48.7093C104.128 47.6461 104.324 46.5082 104.286 45.366C104.322 44.2221 104.124 43.0828 103.705 42.0177C103.286 40.9527 102.655 39.9841 101.849 39.1711C100.226 37.603 98.058 36.7265 95.8015 36.7265C93.545 36.7265 91.3768 37.603 89.7541 39.1711C88.9473 39.9835 88.3144 40.9518 87.8942 42.0169C87.474 43.082 87.2752 44.2216 87.3099 45.366C87.2742 46.5054 87.4727 47.6399 87.8931 48.6994C88.3135 49.759 88.9469 50.7209 89.7541 51.5258V51.5469Z" fill="white"/>
<path d="M123.889 36.3337C121.234 36.13 119.914 37.1976 119.914 39.5224V39.7121H123.187V44.3688H119.914V58.4934H115.082V44.3688H111.675V39.7121H115.082V39.5224C115.082 36.8675 115.819 34.8517 117.294 33.475C118.769 32.0984 120.972 31.4967 123.903 31.6699L123.889 36.3337Z" fill="white"/>
<path d="M138.091 36.3337C135.436 36.13 134.109 37.1976 134.109 39.5224V39.7121H138.091V44.3688H134.109V58.4934H129.262V44.3688H126.558V39.7121H129.262V39.5224C129.262 36.8675 130.002 34.8517 131.482 33.475C132.962 32.0984 135.165 31.4967 138.091 31.6699V36.3337Z" fill="white"/>
<path d="M144.391 51.0904C145.047 53.4317 146.812 54.6023 149.687 54.6023C150.489 54.6545 151.292 54.5111 152.026 54.1844C152.76 53.8578 153.404 53.3576 153.902 52.7269L157.807 54.9816C155.934 57.6599 153.204 58.9991 149.617 58.9991C146.513 58.9991 144.022 58.0626 142.144 56.1896C141.217 55.2594 140.49 54.1498 140.007 52.9289C139.524 51.7079 139.295 50.4011 139.334 49.0887C139.301 47.78 139.532 46.4782 140.015 45.2614C140.498 44.0447 141.222 42.9382 142.144 42.0088C143.075 41.0728 144.189 40.34 145.418 39.8564C146.646 39.3729 147.961 39.1491 149.28 39.1993C150.554 39.1632 151.82 39.3996 152.995 39.8926C154.17 40.3856 155.226 41.1238 156.093 42.0579C157.878 43.9547 158.844 46.4779 158.783 49.0816C158.779 49.7485 158.716 50.4138 158.593 51.0693L144.391 51.0904ZM144.314 47.3398H153.895C153.708 46.205 153.098 45.1833 152.188 44.4811C151.332 43.8578 150.297 43.5277 149.238 43.5399C148.079 43.4958 146.939 43.8476 146.007 44.5373C145.129 45.242 144.53 46.2349 144.314 47.3398Z" fill="white"/>
<path d="M166.263 42.943C166.66 41.8034 167.453 40.844 168.497 40.2389C169.554 39.6303 170.754 39.3173 171.974 39.3328V44.7481C170.587 44.5501 169.175 44.8729 168.012 45.6542C166.846 46.4268 166.263 47.7168 166.263 49.5242V58.4935H161.438V39.7121H166.284L166.263 42.943Z" fill="white"/>
<path d="M188.353 39.7119H193.199V58.4933H188.353V56.2738C187.62 57.1796 186.683 57.8988 185.618 58.3725C184.554 58.8462 183.392 59.0609 182.228 58.999C181.012 59.0077 179.808 58.7558 178.697 58.2603C177.586 57.7648 176.594 57.0372 175.788 56.1263C174.048 54.1921 173.086 51.6828 173.086 49.0815C173.086 46.4802 174.048 43.9709 175.788 42.0367C176.593 41.1248 177.585 40.3964 178.696 39.9008C179.807 39.4052 181.012 39.1539 182.228 39.164C183.393 39.1049 184.555 39.3223 185.619 39.7984C186.684 40.2745 187.621 40.9958 188.353 41.9033V39.7119ZM179.412 52.9164C179.895 53.4062 180.475 53.7907 181.115 54.0457C181.754 54.3008 182.439 54.4209 183.127 54.3984C183.818 54.4204 184.507 54.3002 185.149 54.0453C185.792 53.7903 186.376 53.4061 186.864 52.9164C187.824 51.8782 188.356 50.5164 188.356 49.1026C188.356 47.6888 187.824 46.327 186.864 45.2887C186.376 44.799 185.792 44.4148 185.149 44.1599C184.507 43.905 183.818 43.7848 183.127 43.8067C182.439 43.7843 181.754 43.9044 181.115 44.1594C180.475 44.4145 179.895 44.7989 179.412 45.2887C178.467 46.3344 177.944 47.6934 177.944 49.1026C177.944 50.5118 178.467 51.8708 179.412 52.9164Z" fill="white"/>
<path d="M208.335 44.3686H204.121V52.179C204.102 52.4338 204.136 52.6897 204.219 52.9312C204.302 53.1727 204.434 53.3947 204.606 53.5837C205.003 53.9074 205.498 54.0859 206.01 54.0894C206.787 54.1306 207.566 54.1306 208.342 54.0894V58.4863C205.013 58.8609 202.672 58.5472 201.319 57.5451C199.965 56.5431 199.284 54.752 199.275 52.172V44.3686H196.002V39.7119H199.275V35.9191L204.121 34.4512V39.7119H208.335V44.3686Z" fill="white"/>
<path d="M215.282 51.0903C215.933 53.4316 217.698 54.6022 220.578 54.6022C221.38 54.655 222.182 54.5119 222.916 54.1852C223.651 53.8585 224.294 53.3579 224.792 52.7269L228.704 54.9815C226.845 57.6598 224.113 58.999 220.507 58.999C217.403 58.999 214.91 58.0625 213.027 56.1895C212.1 55.2593 211.373 54.1498 210.89 52.9288C210.407 51.7078 210.178 50.4011 210.218 49.0886C210.184 47.78 210.416 46.4781 210.898 45.2613C211.381 44.0446 212.105 42.9381 213.027 42.0087C213.959 41.0738 215.074 40.3416 216.302 39.8581C217.53 39.3746 218.844 39.1503 220.163 39.1992C221.438 39.163 222.706 39.3994 223.882 39.8923C225.058 40.3853 226.115 41.1236 226.983 42.0578C228.766 43.9554 229.73 46.4786 229.666 49.0815C229.662 49.7481 229.601 50.413 229.484 51.0693L215.282 51.0903ZM215.212 47.3397H224.785C224.599 46.2049 223.989 45.1832 223.078 44.481C222.222 43.8578 221.187 43.5277 220.128 43.5398C218.969 43.4968 217.83 43.8485 216.897 44.5372C216.022 45.2427 215.424 46.2356 215.212 47.3397Z" fill="white"/>
<path d="M236.29 45.043C236.29 45.5487 236.62 45.9561 237.28 46.2652C238.059 46.6188 238.871 46.8963 239.703 47.094C240.672 47.3391 241.627 47.6392 242.562 47.993C243.523 48.3657 244.362 48.9979 244.985 49.8191C245.67 50.7379 246.022 51.8625 245.982 53.0079C246.024 53.872 245.847 54.7326 245.469 55.5107C245.091 56.2887 244.524 56.9594 243.819 57.4609C242.234 58.5357 240.346 59.0748 238.432 58.9991C234.569 58.9991 231.937 57.5101 230.537 54.5321L234.752 52.1651C235.306 53.7875 236.529 54.6023 238.439 54.6023C240.167 54.6023 241.031 54.0615 241.031 52.9868C241.031 52.4882 240.694 52.0808 240.033 51.7647C239.251 51.4153 238.44 51.1333 237.61 50.9219C236.639 50.6655 235.685 50.3512 234.752 49.9807C233.803 49.6066 232.967 48.9917 232.328 48.1967C231.65 47.3262 231.299 46.2445 231.338 45.1414C231.304 44.3007 231.472 43.4641 231.827 42.7016C232.183 41.939 232.716 41.2728 233.382 40.7586C234.849 39.6636 236.645 39.1012 238.474 39.1642C239.928 39.1464 241.362 39.5019 242.639 40.1967C243.889 40.8781 244.92 41.9013 245.61 43.1466L241.508 45.4223C241.267 44.8313 240.848 44.3297 240.31 43.9863C239.771 43.643 239.14 43.4748 238.502 43.5048C237.953 43.4876 237.411 43.6316 236.943 43.9192C236.744 44.0316 236.579 44.195 236.464 44.3925C236.349 44.59 236.289 44.8146 236.29 45.043Z" fill="white"/>
</g>
<defs>
<linearGradient id="paint0_linear_1402_33841" x1="25.04" y1="22.4" x2="67.28" y2="64" gradientUnits="userSpaceOnUse">
<stop stop-color="#56C676"/>
<stop offset="1" stop-color="#56C676" stop-opacity="0.6"/>
</linearGradient>
<clipPath id="clip0_1402_33841">
<rect width="248" height="64" fill="white"/>
</clipPath>
</defs>
</svg>
