<svg width="132" height="38" viewBox="0 0 132 38" fill="none" xmlns="http://www.w3.org/2000/svg">
<g clip-path="url(#clip0_1402_41111)">
<path d="M8.86696 6.08557C6.19826 6.08557 3.81652 7.21456 2.18087 9.00441L4.36174 11.4001C5.39478 10.0783 7.00174 9.2247 8.83826 9.2247C11.9374 9.2247 14.4339 11.6204 14.4339 14.5943C14.4339 17.5682 11.9374 19.9638 8.83826 19.9638C6.77217 19.9638 4.96435 18.8624 3.9887 17.2653L0 20.6522V29.1885H3.2713V21.203C4.79217 22.387 6.74348 23.103 8.86696 23.103C13.7739 23.1305 17.7339 19.303 17.7339 14.5943C17.7339 9.88557 13.7739 6.08557 8.86696 6.08557Z" fill="#56C676"/>
<path d="M28.2652 23.1029C30.9339 23.1029 33.3156 21.9739 34.9513 20.1841L32.7704 17.7884C31.7374 19.1101 30.1304 19.9638 28.2939 19.9638C25.1661 19.9638 22.6696 17.5406 22.6696 14.5942C22.6696 11.6478 25.1661 9.22464 28.2652 9.22464C30.3313 9.22464 32.1391 10.3261 33.1148 11.9232L37.1322 8.53623V0H33.8609V7.98551C32.34 6.80145 30.3887 6.08551 28.2652 6.08551C23.3583 6.05797 19.3983 9.88551 19.3983 14.5942C19.3983 19.3029 23.3583 23.1029 28.2652 23.1029Z" fill="#56C676"/>
<path d="M42.0391 0H38.7678V22.7725H42.0391V0Z" fill="#56C676"/>
<path d="M50.1026 12.8043H45.1669V15.9435H50.1026V12.8043Z" fill="white"/>
<path d="M8.75218 10.6841C8.49392 10.6841 8.23566 10.7116 7.9774 10.7667V11.6478C7.05914 11.8406 6.51392 12.3913 6.51392 13.1348C6.51392 14.8145 9.69914 15.2826 9.69914 16.329C9.69914 16.6319 9.46957 16.9073 8.89566 16.9073C8.20696 16.9073 7.92001 16.4942 7.74783 15.8058L6.31305 15.9986C6.54261 16.8522 6.94435 17.5406 7.9774 17.7609V18.4218C8.23566 18.4768 8.49392 18.5044 8.75218 18.5044C9.01044 18.5044 9.2687 18.4768 9.52696 18.4218V17.816C10.6461 17.6507 11.3348 17.0725 11.3348 16.2464C11.3348 14.5392 8.14957 14.0986 8.14957 13.0522C8.14957 12.7493 8.40783 12.5565 8.80957 12.5565C9.35479 12.5565 9.61305 12.887 9.81392 13.5203L11.2774 13.2725C10.9904 12.3913 10.5026 11.7855 9.49827 11.6203V10.7667C9.2687 10.7116 9.01044 10.6841 8.75218 10.6841Z" fill="white"/>
<path d="M59.9739 6.08557C57.3052 6.08557 54.9235 7.21456 53.2878 9.00441L55.4687 11.4001C56.5017 10.0783 58.1087 9.2247 59.9452 9.2247C63.0443 9.2247 65.5409 11.6204 65.5409 14.5943C65.5409 17.5682 63.0443 19.9638 59.9452 19.9638C57.8791 19.9638 56.0713 18.8624 55.0956 17.2653L51.0782 20.6522V29.1885H54.3496V21.203C55.8704 22.387 57.8217 23.103 59.9452 23.103C64.8522 23.103 68.8122 19.303 68.8122 14.5943C68.8409 9.88557 64.8809 6.08557 59.9739 6.08557Z" fill="white"/>
<path d="M114.323 6.08557V22.7725H117.595V6.08557H114.323Z" fill="white"/>
<path d="M114.323 0.82605V3.96518H117.595V0.82605H114.323Z" fill="white"/>
<path d="M81.1513 9.2247V6.08557H79.9174C77.7939 6.08557 75.8713 6.80151 74.3504 7.98557V6.08557H71.0791V14.5117C71.0791 14.5392 71.0791 14.5667 71.0791 14.5943V22.7725H74.3504V21.0653L74.3791 14.5943C74.3791 11.6479 76.8756 9.25224 79.946 9.25224L81.1513 9.2247Z" fill="white"/>
<path d="M90.0183 6.05798C85.1113 6.05798 81.1513 9.85798 81.1513 14.5667C81.1513 19.2754 85.1113 23.0754 90.0183 23.0754C94.9252 23.0754 98.8852 19.2754 98.8852 14.5667C98.8852 9.85798 94.9252 6.05798 90.0183 6.05798ZM90.0183 19.9362C86.9478 19.9362 84.4513 17.5406 84.4513 14.5942C84.4513 11.6478 86.9478 9.25219 90.0183 9.25219C93.0887 9.25219 95.5852 11.6478 95.5852 14.5942C95.5852 17.5406 93.0887 19.9362 90.0183 19.9362Z" fill="white"/>
<path d="M131.713 22.7724V19.6333L128.442 19.6058C125.371 19.6058 122.875 17.2101 122.875 14.2637H122.846V9.11446H128.413V5.94779H122.846V0.82605H119.575V14.2637C119.575 18.9724 123.535 22.7724 128.413 22.7724H131.713Z" fill="white"/>
<path d="M112.458 3.96518V0.82605H109.187C104.309 0.82605 100.349 4.65359 100.349 9.33475V22.7724H103.591V12.3913H109.158V9.2246H103.591C103.649 6.30576 106.117 3.96518 109.158 3.96518H112.458Z" fill="white"/>
<path d="M72.973 31.3913C73.2887 31.3913 73.5757 31.4464 73.8052 31.5841C74.0635 31.7218 74.2644 31.9145 74.3791 32.1348C74.5226 32.3826 74.58 32.658 74.58 32.9609C74.58 33.2638 74.5226 33.5392 74.3791 33.787C74.2357 34.0348 74.0348 34.2 73.8052 34.3377C73.547 34.4754 73.2887 34.5305 72.973 34.5305C72.7435 34.5305 72.5426 34.5029 72.3704 34.4203C72.1983 34.3377 72.0261 34.2276 71.9113 34.0899V34.5029H71.1652V30.2073H71.9113V31.7768C72.0261 31.6392 72.1983 31.529 72.3704 31.4739C72.5713 31.4189 72.7435 31.3913 72.973 31.3913ZM72.887 33.9522C73.1739 33.9522 73.4035 33.8696 73.5757 33.6768C73.7478 33.5116 73.8339 33.2638 73.8339 32.9884C73.8339 32.6855 73.7478 32.4652 73.5757 32.3C73.4035 32.1348 73.1739 32.0247 72.887 32.0247C72.7148 32.0247 72.5426 32.0522 72.3991 32.1348C72.2557 32.2174 72.1409 32.3276 72.0548 32.4652C71.9687 32.6029 71.94 32.7957 71.94 32.9884C71.94 33.1812 71.9687 33.3464 72.0548 33.5116C72.1409 33.6493 72.2557 33.7595 72.3991 33.8421C72.5426 33.8971 72.6861 33.9522 72.887 33.9522Z" fill="white"/>
<path d="M78.7696 31.4188L77.2487 34.7507C77.1052 35.0811 76.9331 35.329 76.7322 35.4667C76.5313 35.6043 76.2731 35.6869 76.0148 35.6869C75.8426 35.6869 75.6992 35.6594 75.527 35.6043C75.3835 35.5493 75.24 35.4942 75.1539 35.384L75.4696 34.8609C75.5557 34.9159 75.6131 34.971 75.7278 35.0261C75.8426 35.0536 75.9287 35.0811 76.0435 35.0811C76.187 35.0811 76.2731 35.0536 76.3591 34.971C76.4452 34.9159 76.5313 34.8058 76.5887 34.6406L76.6461 34.5304L75.24 31.4188H76.0148L77.0191 33.7043L78.0522 31.4188H78.7696Z" fill="white"/>
<path d="M99.4304 31.1434H98.053V30.5101H101.583V31.1434H100.205V34.5029H99.4304V31.1434ZM105.313 34.5029L104.452 33.3463C104.423 33.3463 104.366 33.3463 104.28 33.3463H103.333V34.5029H102.558V30.5101H104.251C104.624 30.5101 104.911 30.5652 105.198 30.6753C105.457 30.7855 105.657 30.9507 105.801 31.171C105.944 31.3913 106.002 31.6391 106.002 31.9144C106.002 32.2173 105.916 32.4652 105.772 32.6855C105.629 32.9058 105.399 33.071 105.112 33.1811L106.059 34.5029H105.313ZM105.284 31.942C105.284 31.6942 105.198 31.5014 105.026 31.3637C104.854 31.226 104.596 31.171 104.251 31.171H103.362V32.7681H104.251C104.596 32.7681 104.854 32.6855 105.026 32.5478C105.198 32.3826 105.284 32.1898 105.284 31.942ZM107.379 30.5101H108.154V34.5029H107.379V30.5101ZM111.655 34.5579C111.224 34.5579 110.851 34.4753 110.507 34.2826C110.163 34.0898 109.904 33.8695 109.703 33.5391C109.503 33.2362 109.417 32.8782 109.417 32.4927C109.417 32.1072 109.503 31.7492 109.703 31.4463C109.904 31.1434 110.163 30.8956 110.507 30.7029C110.851 30.5376 111.224 30.4275 111.655 30.4275C112.085 30.4275 112.458 30.5101 112.803 30.7029C113.147 30.8681 113.405 31.1159 113.606 31.4463C113.807 31.7492 113.893 32.1072 113.893 32.4927C113.893 32.8782 113.807 33.2362 113.606 33.5391C113.405 33.842 113.147 34.0898 112.803 34.2826C112.458 34.4753 112.085 34.5579 111.655 34.5579ZM111.655 33.8971C111.942 33.8971 112.171 33.842 112.401 33.7043C112.63 33.5942 112.803 33.4289 112.917 33.2086C113.032 32.9884 113.118 32.7681 113.118 32.4927C113.118 32.2173 113.061 31.9971 112.917 31.7768C112.803 31.5565 112.63 31.3913 112.401 31.2811C112.171 31.171 111.942 31.0884 111.655 31.0884C111.368 31.0884 111.138 31.1434 110.909 31.2811C110.679 31.4188 110.507 31.5565 110.392 31.7768C110.277 31.9971 110.191 32.2173 110.191 32.4927C110.191 32.7681 110.249 32.9884 110.392 33.2086C110.507 33.4289 110.679 33.5942 110.909 33.7043C111.138 33.842 111.397 33.8971 111.655 33.8971ZM118.857 30.5101V34.5029H118.226L115.93 31.8043V34.5029H115.156V30.5101H115.787L118.083 33.2086V30.5101H118.857ZM120.407 30.5101H121.182V34.5029H120.407V30.5101ZM124.195 32.8231L123.535 33.484V34.5029H122.76V30.5101H123.535V32.5478L125.572 30.5101H126.433L124.683 32.3L126.519 34.5029H125.63L124.195 32.8231ZM130.594 33.5666H128.528L128.126 34.4753H127.323L129.188 30.4826H129.934L131.799 34.4753H130.996L130.594 33.5666ZM130.336 32.9884L129.561 31.2536L128.786 32.9884H130.336Z" fill="white"/>
<path fill-rule="evenodd" clip-rule="evenodd" d="M94.4374 31.6942L92.0843 27.784C91.7974 27.2884 91.2235 26.9855 90.6496 26.9855H85.9435C85.3409 26.9855 84.7957 27.2884 84.5087 27.784L82.1556 31.6942C81.8687 32.1898 81.8687 32.7956 82.1556 33.2913L84.5087 37.2014C84.7957 37.6971 85.3696 38 85.9435 38H90.6496C91.2522 38 91.7974 37.6971 92.0843 37.2014L94.4374 33.2913C94.753 32.7956 94.753 32.1898 94.4374 31.6942ZM90.4487 32.8232L89.0713 35.1362C89.0139 35.2188 88.9278 35.2739 88.8417 35.2739H86.9478C86.833 35.2739 86.747 35.1362 86.8043 35.0536L87.4643 33.9797C87.493 33.9246 87.493 33.8695 87.4643 33.842L86.8043 32.7405C86.7183 32.6304 86.7183 32.4652 86.8043 32.355L87.4643 31.2536C87.493 31.1985 87.493 31.1434 87.4643 31.1159L86.8043 30.042C86.747 29.9318 86.833 29.8217 86.9478 29.8217H88.8417C88.9278 29.8217 89.0139 29.8768 89.0713 29.9594L90.4487 32.2724C90.5635 32.3826 90.5635 32.6029 90.4487 32.8232Z" fill="#F0B020"/>
</g>
<defs>
<clipPath id="clip0_1402_41111">
<rect width="132" height="38" fill="white"/>
</clipPath>
</defs>
</svg>
