<svg width="80" height="13" viewBox="0 0 80 13" fill="none" xmlns="http://www.w3.org/2000/svg">
<g clip-path="url(#clip0_1402_50832)">
<path d="M12.4376 11.9664H9.06196C7.04973 11.9664 5.3363 10.5314 4.9863 8.55748C4.94016 8.29188 5.00087 8.0188 5.15521 7.79776C5.30955 7.57673 5.545 7.42566 5.81025 7.37748C6.07586 7.33123 6.34899 7.39176 6.57018 7.5459C6.79138 7.70004 6.94273 7.93532 6.9913 8.20051C7.1663 9.20577 8.0413 9.9342 9.06196 9.9342H12.4378C13.597 9.9342 14.5447 8.98722 14.5447 7.82893C14.5447 6.67077 13.597 5.72393 12.4376 5.72393C11.8763 5.72393 11.417 5.26498 11.417 4.70419C11.417 4.14327 11.8762 3.68433 12.4376 3.68433C14.7197 3.68433 16.5789 5.54183 16.5789 7.82169C16.5789 10.1017 14.7271 11.9664 12.4376 11.9664Z" fill="url(#paint0_radial_1402_50832)"/>
<path d="M4.14132 3.69165H7.51697C9.52921 3.69165 11.2426 5.12665 11.5926 7.1006C11.6388 7.36621 11.5781 7.63929 11.4237 7.86032C11.2694 8.08136 11.0339 8.23242 10.7687 8.2806C10.5031 8.32686 10.2299 8.26632 10.0088 8.11218C9.78756 7.95804 9.6362 7.72277 9.58763 7.45757C9.41263 6.45231 8.53763 5.72389 7.51697 5.72389H4.14132C2.98211 5.72389 2.03421 6.67086 2.03421 7.82915C2.03421 8.98718 2.98197 9.93415 4.14132 9.93415C4.70263 9.93415 5.16197 10.3931 5.16197 10.9539C5.16197 11.5148 4.70276 11.9738 4.14118 11.9738C1.85921 11.9665 0 10.109 0 7.82902C0 5.54915 1.85921 3.69165 4.14132 3.69165Z" fill="url(#paint1_radial_1402_50832)"/>
<path d="M25.6486 3.43908C24.4904 3.43908 23.5253 3.855 22.7371 4.70276C21.965 5.53461 21.5789 6.57434 21.5789 7.83816C21.5789 9.10197 21.965 10.1414 22.7371 10.9893C23.5253 11.8211 24.4904 12.237 25.6486 12.237C26.5976 12.237 27.4501 11.933 28.19 11.3412V11.9971H30.1846V3.67895H28.19V4.33474C27.4501 3.74289 26.5976 3.43908 25.6486 3.43908ZM27.4984 6.12645C27.9326 6.59026 28.1579 7.15013 28.1579 7.83803C28.1579 8.52579 27.9326 9.08566 27.4984 9.54947C27.0641 10.0134 26.5333 10.2374 25.9059 10.2374C25.2786 10.2374 24.7317 10.0134 24.2974 9.54947C23.863 9.08566 23.6539 8.52579 23.6539 7.83803C23.6539 7.15013 23.863 6.59026 24.2974 6.12645C24.7317 5.6625 25.2786 5.43855 25.9059 5.43855C26.5333 5.43855 27.0641 5.6625 27.4984 6.12645ZM32.4699 5.40658V11.997H34.4805V5.40658H37.5529V11.997H39.5636V5.40658H41.5582V3.67895H39.5636V2.91118C39.5636 2.33539 39.9978 1.90355 40.5768 1.90355H41.5582V0H40.4321C39.6117 0 38.9362 0.255921 38.3732 0.751842C37.8263 1.24763 37.5529 1.8875 37.5529 2.63934V3.67908H34.4805V2.91132C34.4805 2.33539 34.9149 1.90342 35.4939 1.90342H36.4751V0H35.3492C34.5288 0 33.8532 0.255921 33.2903 0.751842C32.7433 1.24763 32.4699 1.8875 32.4699 2.63934V3.67908H31.1991V5.40671L32.4699 5.40658ZM48.7496 5.67855C48.5405 4.28684 47.3663 3.43908 45.5487 3.43908C43.6345 3.43908 42.3155 4.28684 42.3155 6.0304C42.3155 7.19816 42.8946 7.88592 44.3101 8.34987L46.0312 8.89369C46.6586 9.10158 46.9642 9.37355 46.9642 9.69355C46.9642 10.2054 46.3851 10.5093 45.613 10.5093C44.6962 10.5093 44.1171 10.1093 43.9722 9.5175L42.0903 9.78947C42.3316 11.3091 43.5541 12.2368 45.5647 12.2368C47.495 12.2368 48.8783 11.3571 48.8783 9.62947C48.8783 8.42987 48.2349 7.66197 46.6907 7.13421L44.9696 6.55829C44.4709 6.38237 44.2296 6.15829 44.2296 5.88645C44.2296 5.42263 44.7443 5.16671 45.4039 5.16671C46.2082 5.16671 46.6907 5.43855 46.8676 5.9825L48.7496 5.67855ZM49.4993 5.42263H50.6897V9.37355C50.6897 10.1254 50.9632 10.7492 51.51 11.2451C52.057 11.7409 52.7325 11.997 53.5368 11.997H54.7754V10.0934H53.7299C53.1346 10.0934 52.7004 9.66158 52.7004 9.08566V5.4225H54.7754V3.67908H52.7004V2.0475H50.6897V3.67908H49.4993V5.4225V5.42263ZM56.9679 10.9892C57.8204 11.8209 58.8659 12.2368 60.1367 12.2368C61.4075 12.2368 62.453 11.8211 63.3055 10.9892C64.158 10.1413 64.5763 9.10171 64.5763 7.83789C64.5763 6.57434 64.158 5.53461 63.3055 4.70276C62.453 3.855 61.4075 3.43908 60.1367 3.43908C58.8659 3.43908 57.8204 3.855 56.9679 4.70276C56.1314 5.53461 55.7133 6.57434 55.7133 7.83803C55.7133 9.10171 56.1314 10.1413 56.9679 10.9892ZM58.4638 6.12645C58.9142 5.6625 59.4772 5.43855 60.1367 5.43855C60.7962 5.43855 61.3592 5.6625 61.8096 6.12645C62.26 6.59026 62.4851 7.15013 62.4851 7.83803C62.4851 8.52579 62.26 9.08566 61.8096 9.54947C61.3592 10.0134 60.7962 10.2374 60.1367 10.2374C59.4772 10.2374 58.9142 10.0134 58.4638 9.54947C58.0134 9.08566 57.7883 8.52579 57.7883 7.83803C57.7883 7.15013 58.0134 6.59026 58.4638 6.12645ZM67.9729 3.67895H65.9622V11.997H67.9729V7.42197C67.9729 6.31842 68.7933 5.48658 69.9032 5.48658C70.1928 5.48658 70.4662 5.55053 70.7236 5.6625V3.43908C69.4688 3.43908 68.552 3.855 67.9729 4.70276V3.67908V3.67895ZM79.9357 8.57368C79.9839 8.25395 80 8.01395 80 7.83803C80 6.59026 79.5818 5.55053 78.7292 4.70276C77.8928 3.855 76.8472 3.43908 75.6087 3.43908C74.3701 3.43908 73.3246 3.855 72.4721 4.70276C71.6357 5.53461 71.2174 6.57434 71.2174 7.83803C71.2174 9.10171 71.6517 10.1413 72.5042 10.9892C73.3728 11.8209 74.4505 12.2368 75.7374 12.2368C77.4263 12.2368 78.8741 11.405 79.6462 10.0774L77.6997 9.5175C77.2172 10.1093 76.5578 10.3974 75.7374 10.3974C74.5632 10.3974 73.598 9.66145 73.2924 8.57368H79.9357ZM73.3084 7.02237C73.6141 5.98263 74.5309 5.27882 75.5766 5.27882C76.6703 5.27882 77.6033 5.98263 77.925 7.02224L73.3084 7.02237Z" fill="white"/>
</g>
<defs>
<radialGradient id="paint0_radial_1402_50832" cx="0" cy="0" r="1" gradientUnits="userSpaceOnUse" gradientTransform="translate(12.4407 4.76609) rotate(97.008) scale(5.462 6.51236)">
<stop offset="0.201" stop-color="#BCF200" stop-opacity="0"/>
<stop offset="0.374" stop-color="#BCF200" stop-opacity="0.2"/>
<stop offset="0.562" stop-color="#BCF200" stop-opacity="0.5"/>
<stop offset="0.998" stop-color="#BCF200"/>
</radialGradient>
<radialGradient id="paint1_radial_1402_50832" cx="0" cy="0" r="1" gradientUnits="userSpaceOnUse" gradientTransform="translate(4.14502 10.881) rotate(-97.008) scale(5.462 6.51236)">
<stop offset="0.201" stop-color="#BCF200" stop-opacity="0"/>
<stop offset="0.374" stop-color="#BCF200" stop-opacity="0.2"/>
<stop offset="0.562" stop-color="#BCF200" stop-opacity="0.5"/>
<stop offset="0.998" stop-color="#BCF200"/>
</radialGradient>
<clipPath id="clip0_1402_50832">
<rect width="80" height="12.2368" fill="white"/>
</clipPath>
</defs>
</svg>
