<svg width="20" height="20" viewBox="0 0 20 20" fill="none" xmlns="http://www.w3.org/2000/svg">
<path d="M18.0394 2.1028C18.0328 2.07074 18.0171 2.04125 17.9943 2.01779C17.9715 1.99433 17.9424 1.97788 17.9105 1.97038C15.7863 1.45085 10.8793 3.30202 8.21795 5.96139C7.74364 6.43181 7.31115 6.94259 6.92537 7.48796C6.10506 7.41374 5.28475 7.47624 4.58631 7.78092C2.61405 8.64811 2.04022 10.913 1.88006 11.8852C1.87138 11.9385 1.87509 11.9931 1.89089 12.0447C1.9067 12.0963 1.93417 12.1436 1.97119 12.1828C2.0082 12.2221 2.05377 12.2524 2.10435 12.2712C2.15494 12.29 2.20918 12.297 2.26287 12.2915L5.42967 11.9438C5.43186 12.1827 5.4462 12.4213 5.47264 12.6587C5.48917 12.8227 5.56238 12.9759 5.67967 13.0919L6.90584 14.318C7.02187 14.4354 7.17521 14.5086 7.33944 14.5251C7.57541 14.5514 7.81256 14.5657 8.04998 14.568L7.70272 17.7321C7.6973 17.7857 7.70428 17.8399 7.72312 17.8904C7.74197 17.9409 7.77217 17.9864 7.8114 18.0233C7.85063 18.0603 7.89783 18.0877 7.94936 18.1036C8.00089 18.1194 8.05537 18.1231 8.10858 18.1145C9.08123 17.9583 11.3508 17.3844 12.2129 15.4126C12.5176 14.7133 12.5801 13.8973 12.5097 13.0809C13.0567 12.6955 13.569 12.263 14.0406 11.7883C16.7117 9.1321 18.5512 4.33288 18.0394 2.1028ZM11.6664 8.34733C11.4331 8.11408 11.2742 7.81687 11.2098 7.49331C11.1454 7.16974 11.1784 6.83435 11.3046 6.52955C11.4309 6.22474 11.6447 5.96422 11.919 5.78092C12.1933 5.59763 12.5158 5.4998 12.8457 5.4998C13.1756 5.4998 13.4981 5.59763 13.7724 5.78092C14.0467 5.96422 14.2605 6.22474 14.3867 6.52955C14.513 6.83435 14.546 7.16974 14.4816 7.49331C14.4172 7.81687 14.2583 8.11408 14.025 8.34733C13.8702 8.50241 13.6864 8.62544 13.4841 8.70939C13.2817 8.79333 13.0648 8.83654 12.8457 8.83654C12.6266 8.83654 12.4097 8.79333 12.2073 8.70939C12.005 8.62544 11.8211 8.50241 11.6664 8.34733Z" stroke="white" stroke-linecap="round" stroke-linejoin="round"/>
<path d="M4.28281 13.75C3.8934 13.7978 3.53113 13.9743 3.25352 14.2516C2.56523 14.9422 2.5 17.5 2.5 17.5C2.5 17.5 5.05937 17.4348 5.74805 16.7457C6.0264 16.4685 6.20323 16.1056 6.25 15.7156" stroke="white" stroke-linecap="round" stroke-linejoin="round"/>
</svg>
