<svg width="20" height="20" viewBox="0 0 20 20" fill="none" xmlns="http://www.w3.org/2000/svg">
<path d="M9.16667 3.33203H3.33334C2.89131 3.33203 2.46739 3.50763 2.15483 3.82019C1.84227 4.13275 1.66667 4.55667 1.66667 4.9987V16.6654C1.66667 17.1074 1.84227 17.5313 2.15483 17.8439C2.46739 18.1564 2.89131 18.332 3.33334 18.332H15C15.442 18.332 15.866 18.1564 16.1785 17.8439C16.4911 17.5313 16.6667 17.1074 16.6667 16.6654V10.832" stroke="white" stroke-linecap="round" stroke-linejoin="round"/>
<path d="M15.4167 2.08417C15.7482 1.75265 16.1978 1.56641 16.6667 1.56641C17.1355 1.56641 17.5852 1.75265 17.9167 2.08417C18.2482 2.41569 18.4344 2.86533 18.4344 3.33417C18.4344 3.80301 18.2482 4.25265 17.9167 4.58417L10 12.5008L6.66667 13.3342L7.50001 10.0008L15.4167 2.08417Z" stroke="white" stroke-linecap="round" stroke-linejoin="round"/>
</svg>
