<svg width="21" height="20" viewBox="0 0 21 20" fill="none" xmlns="http://www.w3.org/2000/svg">
<path d="M9.94195 0.463526C10.0916 0.00287056 10.7433 0.00287008 10.893 0.463525L12.9994 6.9463C13.0663 7.15232 13.2583 7.2918 13.4749 7.2918H20.2913C20.7757 7.2918 20.9771 7.9116 20.5852 8.1963L15.0706 12.2029C14.8954 12.3302 14.8221 12.5559 14.889 12.7619L16.9954 19.2447C17.1451 19.7053 16.6178 20.0884 16.226 19.8037L10.7114 15.7971C10.5361 15.6698 10.2988 15.6698 10.1236 15.7971L4.60901 19.8037C4.21715 20.0884 3.68991 19.7053 3.83959 19.2447L5.94597 12.7619C6.01291 12.5559 5.93958 12.3302 5.76433 12.2029L0.249752 8.1963C-0.142105 7.9116 0.0592825 7.2918 0.543644 7.2918H7.36004C7.57665 7.2918 7.76863 7.15232 7.83557 6.9463L9.94195 0.463526Z" fill="#0F0E0E"/>
</svg>
